/* XPM */
static char *result[] = {
/* columns rows colors chars-per-pixel */
"56 56 5 1 ",
"  c black",
". c gray17",
"X c gray33",
"o c #606060",
"O c #959595",
/* pixels */
"XXX..............XXXXOOOOOOO   OOOOXXX..............XXXX",
"XXX..............XXXXOOOOOOO   OOOOXXX..............XXXX",
"XXX..............XXXXOOOOOOO   OOOOXXX..............XXXX",
"XXX..............XXXXOOOOOOO   OOOOXXX..............XXXX",
"XXXXXXXOOOOOOOOOOOOOOOOOOOOO...OOOOOOOOOOO   XXXXXXX....",
"XXXXXXXOOOOOOOOOOOOOOOOOOOOO...OOOOOOOOOOO   XXXXXXX....",
"XXXXXXXOOOOOOOOOOOOOOOOOOOOO...OOOOOOOOOOO   XXXXXXX....",
"XXXX   .......   ...........OOO....XXXXXXXXXXOOOOXXXXXXX",
"XXXX   .......   ...........OOO....XXXXXXXXXXOOOOXXXXXXX",
"XXXX   .......   ...........OOO....XXXXXXXXXXOOOOXXXXXXX",
"XXXXOOOXXX....   ...........OOO....XXXXXXXXXXOOOOXXXXXXX",
"XXXXOOOXXXXXXXXXX    XXXOOOOXXXXXXX.................XXXX",
"XXXXOOOXXXXXXXXXX    XXXOOOOXXXXXXX.................XXXX",
"XXXXOOOXXXXXXXXXX    XXXOOOOXXXXXXX.................XXXX",
"XXXXOOOOOOO........................OOOOOOOOOOOOOOOOO    ",
"XXXXOOOOOOO........................OOOOOOOOOOOOOOOOO    ",
"XXXXOOOOOOO........................OOOOOOOOOOOOOOOOO    ",
".......XXXXXXXXXX..................OOOOOOOOOOOOOOOOO    ",
".......XXXXXXXXXXX..........XXX    XXXXXXX.......   XXXX",
".......XXXXXXXXXXX..........XXX    XXXXXXX.......   XXXX",
".......XXXXXXXXXXX..........XXX    XXXXXXX.......   XXXX",
"OOOOOOOXXXXoooXXXX...OOOOOOOXXXXXXXXXXXXXXOOOOOOOOOO    ",
"OOOOOOOXXXXoooXXXX...OOOOOOOXXXXXXXXXXXXXXOOOOOOOOOO    ",
"OOOOOOOXXXXoooXXXX...OOOOOOOXXXXXXXXXXXXXXOOOOOOOOOO    ",
"XXXXXXXXXXX.............OOOOXXXXXXXXXXXXXXOOOOOOOOOO    ",
"XXXXXXXXXXX....................    ..............XXXXXXX",
"XXXXXXXXXXX....................    ..............XXXXXXX",
"XXXXXXXXXXX....................    ..............XXXXXXX",
"XXXXOOOOOOO   OOOO...XXXXXXXXXXOOOOOOOOOOOOOOOOOOOOOOOOO",
"XXXXOOOOOOO   OOOO...XXXXXXXXXXOOOOOOOOOOOOOOOOOOOOOOOOO",
"XXXXOOOOOOO   OOOO...XXXXXXXXXXOOOOOOOOOOOOOOOOOOOOOOOOO",
"XXXX.....................XXX   XXXXXXX...........OOOXXXX",
"XXXX.....................XXX   XXXXXXX...........OOOXXXX",
"XXXX.....................XXX   XXXXXXX...........OOOXXXX",
"XXXX.....................XXX   XXXXXXX...........OOOXXXX",
"XXXXXXXOOOO.......OOOOOOO...   ....OOOOOOOOOOXXXXXXXXXXX",
"XXXXXXXOOOO.......OOOOOOO...   ....OOOOOOOOOOXXXXXXXXXXX",
"XXXXXXXOOOO.......OOOOOOO...   ....OOOOOOOOOOXXXXXXXXXXX",
"    XXXXXXXXXX....XXXXXXXXXXOOOOOOOXXXOOOOOOOXXXXXXXXXXX",
"    XXXXXXXXXX....XXXXXXXXXXOOOOOOOXXXXXXXXXXOOOOOOO    ",
"    XXXXXXXXXX....XXXXXXXXXXOOOOOOOXXXXXXXXXXOOOOOOO    ",
"    XXXXXXXXXX....XXXXXXXXXXOOOOOOOXXXXXXXXXXOOOOOOO    ",
"XXXX........................OOOOOOO.................XXXX",
"XXXX........................OOOOOOO.................XXXX",
"XXXX........................OOOOOOO.................XXXX",
"XXXXOOO....OOO    XXXXXXX..........    ...XXX.......XXXX",
"XXXXOOO....OOO    XXXXXXX..........    ...XXXXXXXOOOOOOO",
"XXXXOOO....OOO    XXXXXXX..........    ...XXXXXXXOOOOOOO",
"XXXXOOO....OOO    XXXXXXX..........    ...XXXXXXXOOOOOOO",
"XXXXXXXXXXX.................XXXXXXXOOOOOOOXXXX......XXXX",
"XXXXXXXXXXX.................XXXXXXXOOOOOOOXXXX......XXXX",
"XXXXXXXXXXX.................XXXXXXXOOOOOOOXXXX......XXXX",
"..............    OOOOOOOXXXXXXXXXXXXXX..........XXXXXXX",
"..............    OOOOOOOXXXXXXXXXXXXXX..........XXXXXXX",
"..............    OOOOOOOXXXXXXXXXXXXXX..........XXXXXXX",
"..............    OOOOOOOXXXXXXXXXXXXXX..........XXXXXXX"
};
