/* XPM */
static char *result[] = {
/* columns rows colors chars-per-pixel */
"64 64 5 1 ",
"  c black",
". c gray17",
"X c gray33",
"o c #606060",
"O c #959595",
/* pixels */
"XXXX................XXXXOOOOOOOO    OOOOXXXX................XXXX",
"XXXX................XXXXOOOOOOOO    OOOOXXXX................XXXX",
"XXXX................XXXXOOOOOOOO    OOOOXXXX................XXXX",
"XXXX................XXXXOOOOOOOO    OOOOXXXX................XXXX",
"XXXXXXXXOOOOOOOOOOOOOOOOOOOOOOOO....OOOOOOOOOOOO    XXXXXXXX....",
"XXXXXXXXOOOOOOOOOOOOOOOOOOOOOOOO....OOOOOOOOOOOO    XXXXXXXX....",
"XXXXXXXXOOOOOOOOOOOOOOOOOOOOOOOO....OOOOOOOOOOOO    XXXXXXXX....",
"XXXXXXXXOOOOOOOOOOOOOOOOOOOOOOOO....OOOOOOOOOOOO    XXXXXXXX....",
"XXXX    ........    ............OOOO....XXXXXXXXXXXXOOOOXXXXXXXX",
"XXXX    ........    ............OOOO....XXXXXXXXXXXXOOOOXXXXXXXX",
"XXXX    ........    ............OOOO....XXXXXXXXXXXXOOOOXXXXXXXX",
"XXXX    ........    ............OOOO....XXXXXXXXXXXXOOOOXXXXXXXX",
"XXXXOOOOXXXXXXXXXXXX    XXXXOOOOXXXXXXXX....................XXXX",
"XXXXOOOOXXXXXXXXXXXX    XXXXOOOOXXXXXXXX....................XXXX",
"XXXXOOOOXXXXXXXXXXXX    XXXXOOOOXXXXXXXX....................XXXX",
"XXXXOOOOXXXXXXXXXXXX    XXXXOOOOXXXXXXXX....................XXXX",
"XXXXOOOOOOOO............................OOOOOOOOOOOOOOOOOOOO    ",
"XXXXOOOOOOOO............................OOOOOOOOOOOOOOOOOOOO    ",
"XXXXOOOOOOOO............................OOOOOOOOOOOOOOOOOOOO    ",
"XXXXOOOOOOOO............................OOOOOOOOOOOOOOOOOOOO    ",
"........XXXXXXXXXXXX............XXXX    XXXXXXXX........    XXXX",
"........XXXXXXXXXXXX............XXXX    XXXXXXXX........    XXXX",
"........XXXXXXXXXXXX............XXXX    XXXXXXXX........    XXXX",
"........XXXXXXXXXXXX............XXXX    XXXXXXXX........    XXXX",
"OOOOOOOOXXXXooooXXXX....OOOOOOOOXXXXXXXXXXXXXXXXOOOOOOOOOOOO    ",
"OOOOOOOOXXXXooooXXXX....OOOOOOOOXXXXXXXXXXXXXXXXOOOOOOOOOOOO    ",
"OOOOOOOOXXXXooooXXXX....OOOOOOOOXXXXXXXXXXXXXXXXOOOOOOOOOOOO    ",
"OOOOOOOOXXXXooooXXXX....OOOOOOOOXXXXXXXXXXXXXXXXOOOOOOOOOOOO    ",
"XXXXXXXXXXXX........................    ................XXXXXXXX",
"XXXXXXXXXXXX........................    ................XXXXXXXX",
"XXXXXXXXXXXX........................    ................XXXXXXXX",
"XXXXXXXXXXXX........................    ................XXXXXXXX",
"XXXXOOOOOOOO    OOOO....XXXXXXXXXXXXOOOOOOOOOOOOOOOOOOOOOOOOOOOO",
"XXXXOOOOOOOO    OOOO....XXXXXXXXXXXXOOOOOOOOOOOOOOOOOOOOOOOOOOOO",
"XXXXOOOOOOOO    OOOO....XXXXXXXXXXXXOOOOOOOOOOOOOOOOOOOOOOOOOOOO",
"XXXXOOOOOOOO    OOOO....XXXXXXXXXXXXOOOOOOOOOOOOOOOOOOOOOOOOOOOO",
"XXXX........................XXXX    XXXXXXXX............OOOOXXXX",
"XXXX........................XXXX    XXXXXXXX............OOOOXXXX",
"XXXX........................XXXX    XXXXXXXX............OOOOXXXX",
"XXXX........................XXXX    XXXXXXXX............OOOOXXXX",
"XXXXXXXXOOOO........OOOOOOOO....    ....OOOOOOOOOOOOXXXXXXXXXXXX",
"XXXXXXXXOOOO........OOOOOOOO....    ....OOOOOOOOOOOOXXXXXXXXXXXX",
"XXXXXXXXOOOO........OOOOOOOO....    ....OOOOOOOOOOOOXXXXXXXXXXXX",
"XXXXXXXXOOOO........OOOOOOOO....    ....OOOOOOOOOOOOXXXXXXXXXXXX",
"    XXXXXXXXXXXX....XXXXXXXXXXXXOOOOOOOOXXXXXXXXXXXXOOOOOOOO    ",
"    XXXXXXXXXXXX....XXXXXXXXXXXXOOOOOOOOXXXXXXXXXXXXOOOOOOOO    ",
"    XXXXXXXXXXXX....XXXXXXXXXXXXOOOOOOOOXXXXXXXXXXXXOOOOOOOO    ",
"    XXXXXXXXXXXX....XXXXXXXXXXXXOOOOOOOOXXXXXXXXXXXXOOOOOOOO    ",
"XXXX............................OOOOOOOO....................XXXX",
"XXXX............................OOOOOOOO....................XXXX",
"XXXX............................OOOOOOOO....................XXXX",
"XXXX............................OOOOOOOO....................XXXX",
"XXXXOOOO....OOOO    XXXXXXXX............    ....XXXXXXXXOOOOOOOO",
"XXXXOOOO....OOOO    XXXXXXXX............    ....XXXXXXXXOOOOOOOO",
"XXXXOOOO....OOOO    XXXXXXXX............    ....XXXXXXXXOOOOOOOO",
"XXXXOOOO....OOOO    XXXXXXXX............    ....XXXXXXXXOOOOOOOO",
"XXXXXXXXXXXX....................XXXXXXXXOOOOOOOOXXXX........XXXX",
"XXXXXXXXXXXX....................XXXXXXXXOOOOOOOOXXXX........XXXX",
"XXXXXXXXXXXX....................XXXXXXXXOOOOOOOOXXXX........XXXX",
"XXXXXXXXXXXX....................XXXXXXXXOOOOOOOOXXXX........XXXX",
"................    OOOOOOOOXXXXXXXXXXXXXXXX............XXXXXXXX",
"................    OOOOOOOOXXXXXXXXXXXXXXXX............XXXXXXXX",
"................    OOOOOOOOXXXXXXXXXXXXXXXX............XXXXXXXX",
"................    OOOOOOOOXXXXXXXXXXXXXXXX............XXXXXXXX"
};
