/* XPM */
static char *result[] = {
/* columns rows colors chars-per-pixel */
"31 31 6 1 ",
"  c black",
". c gray17",
"X c gray33",
"o c #606060",
"O c #959595",
"+ c None",
/* pixels */
"+++++++++++++++++++++++++++++++",
"+++++++++++++++++++++++++++++++",
"+++++++++++++++++++++++++++++++",
"+++++++++++++++++++++++++++++++",
"+++++++++++++++++++++++++++++++",
"+++++++++++++++++++++++++++++++",
"+++++++++++++++++++++++++++++++",
"+++++++++++++++++++++++++++++++",
"++++++++X....XOO OX....++++++++",
"++++++++XXOOOOOO.OOO XX++++++++",
"++++++++X .. ...O.XXXOX++++++++",
"++++++++XOXXX XOXX.....++++++++",
"++++++++XOO.......OOOOO++++++++",
"++++++++..XXX...X XX.. ++++++++",
"++++++++OOXoX.OOXXXXOOO++++++++",
"++++++++XXX...... ....X++++++++",
"++++++++XOO O.XXXOOOOOO++++++++",
"++++++++X......X XX...O++++++++",
"++++++++XXO..OO. .OOOXX++++++++",
"++++++++ XXX.XXXOOXXXOO++++++++",
"++++++++X.......OO.....++++++++",
"++++++++XO.O XX... .XXO++++++++",
"++++++++XXX.....XXOOX..++++++++",
"+++++++++++++++++++++++++++++++",
"+++++++++++++++++++++++++++++++",
"+++++++++++++++++++++++++++++++",
"+++++++++++++++++++++++++++++++",
"+++++++++++++++++++++++++++++++",
"+++++++++++++++++++++++++++++++",
"+++++++++++++++++++++++++++++++",
"+++++++++++++++++++++++++++++++"
};
