/* XPM */
static char *result[] = {
/* columns rows colors chars-per-pixel */
"33 33 5 1 ",
"  c black",
". c gray17",
"X c gray33",
"o c #606060",
"O c #959595",
/* pixels */
"X....XOO OX....XX....XOO OX....XX",
"XXOOOOOO.OOO XX.XXOOOOOO.OOO XX.X",
"X .. ...O.XXXOXXX .. ...O.XXXOXXX",
"XOXXX XOXX.....XXOXXX XOXX.....XX",
"XOO.......OOOOO XOO.......OOOOO X",
"..XXX...X XX.. X..XXX...X XX.. X.",
"OOXoX.OOXXXXOOO OOXoX.OOXXXXOOO O",
"XXX...... ....XXXXX...... ....XXX",
"XOO O.XXXOOOOOOOXOO O.XXXOOOOOOOX",
"X......X XX...OXX......X XX...OXX",
"XXO..OO. .OOOXXXXXO..OO. .OOOXXXX",
" XXX.XXXOOXXXOO  XXX.XXXOOXXXOO  ",
"X.......OO.....XX.......OO.....XX",
"XO.O XX... .XXOOXO.O XX... .XXOOX",
"XXX.....XXOOX..XXXX.....XXOOX..XX",
".... OOXXXX...XX.... OOXXXX...XX.",
"X....XOO OX....XX....XOO OX....XX",
"XXOOOOOO.OOO XX.XXOOOOOO.OOO XX.X",
"X .. ...O.XXXOXXX .. ...O.XXXOXXX",
"XOXXX XOXX.....XXOXXX XOXX.....XX",
"XOO.......OOOOO XOO.......OOOOO X",
"..XXX...X XX.. X..XXX...X XX.. X.",
"OOXoX.OOXXXXOOO OOXoX.OOXXXXOOO O",
"XXX...... ....XXXXX...... ....XXX",
"XOO O.XXXOOOOOOOXOO O.XXXOOOOOOOX",
"X......X XX...OXX......X XX...OXX",
"XXO..OO. .OOOXXXXXO..OO. .OOOXXXX",
" XXX.XXXOOXXXOO  XXX.XXXOOXXXOO  ",
"X.......OO.....XX.......OO.....XX",
"XO.O XX... .XXOOXO.O XX... .XXOOX",
"XXX.....XXOOX..XXXX.....XXOOX..XX",
".... OOXXXX...XX.... OOXXXX...XX.",
"X....XOO OX....XX....XOO OX....XX"
};
