/* XPM */
static char *result[] = {
/* columns rows colors chars-per-pixel */
"56 56 108 2 ",
"   c black",
".  c #1F1C17",
"X  c #211D17",
"o  c #27231E",
"O  c #28241D",
"+  c #2A251D",
"@  c #2A251E",
"#  c #2B261F",
"$  c #2C251D",
"%  c #2C271E",
"&  c #2C271F",
"*  c #332E25",
"=  c #322D26",
"-  c #362F25",
";  c #352F26",
":  c #382F25",
">  c #363026",
",  c #373127",
"<  c #45351A",
"1  c #413B2F",
"2  c #453C2F",
"3  c #463E32",
"4  c #3D6334",
"5  c #614116",
"6  c #734F1E",
"7  c #77501C",
"8  c #614927",
"9  c #7F5F22",
"0  c #755429",
"q  c #73562E",
"w  c #775A30",
"e  c #436938",
"r  c #436A38",
"t  c #446A38",
"y  c #456A3A",
"u  c #466C3B",
"i  c #466F3C",
"p  c #47703C",
"a  c #47713C",
"s  c #48723C",
"d  c #48733D",
"f  c #4A743D",
"g  c #4A753D",
"h  c #4B763D",
"j  c #4C773E",
"k  c #4C7840",
"l  c #4C7940",
"z  c #4C7941",
"x  c #4D7A41",
"c  c #4E7B43",
"v  c #4E7C43",
"b  c #4F7D44",
"n  c #507E44",
"m  c #507F45",
"M  c #8F691D",
"N  c #A76E1F",
"B  c #825B26",
"V  c #8E6126",
"C  c #84622F",
"Z  c #926323",
"A  c #90662A",
"S  c #956C2E",
"D  c #A26B23",
"F  c #A47227",
"G  c #AB792D",
"H  c #518046",
"J  c #528146",
"K  c #528246",
"L  c #548346",
"P  c #548448",
"I  c #548548",
"U  c #578649",
"Y  c #568749",
"T  c #56874A",
"R  c #58884A",
"E  c #58884B",
"W  c #59894B",
"Q  c #59884C",
"!  c #5A8B4C",
"~  c #5B8C4C",
"^  c #5B8D4D",
"/  c #5B8E4D",
"(  c #5C8F4E",
")  c #5D904E",
"_  c #5D914F",
"`  c #5E9250",
"'  c #5E9350",
"]  c #5F9450",
"[  c #609550",
"{  c #609652",
"}  c #619652",
"|  c #629754",
" . c #629854",
".. c #639955",
"X. c #649A56",
"o. c #649B56",
"O. c #659C57",
"+. c #669D57",
"@. c #69A25A",
"#. c #6AA45B",
"$. c #6AA55B",
"%. c #6CA85D",
"&. c #71AE5F",
"*. c #70AD60",
"=. c #73B062",
"-. c #FFF200",
";. c #A5A5A5",
":. c #CDCDCD",
/* pixels */
"Y Y Y =.=.=.=.I I I l l l l l l l J J J J s s s n n n n / / / T T T T v v v z z z z x x x } } } } 4 4 4 m m m m ",
"Y Y Y =.=.=.=.I I I l l l l l l l J J J J s s s n n n n / / / T T T T v v v z z z z x x x } } } } 4 4 4 m m m m ",
"Y Y Y =.=.=.=.I I I l l l l l l l J J J J s s s n n n n / / / T T T T v v v z z z z x x x } } } } 4 4 4 m m m m ",
"Y Y Y =.=.=.=.I I I l l l l l l l J J J J s s s n :.:.;.;./ / T T T T v v v z z z z x x x } } } } 4 4 4 m m m m ",
"Y Y Y Y m m m ) ) ) W W W W W W W d d d d Q Q Q g :.:.;.;.s s  . . . .{ { { I I I I =.=.=.n n n n z z z b b b b ",
"Y Y Y Y m m m ) ) ) W W W # # * * * * * * , , , , > > * * , , , , , , , , , , O O I =.=.=.n n n n z z z b b b b ",
"Y Y Y Y m m m ) ) ) W W W # # * * * * * * , , , , > > * * , , , , , , , , , , O O I =.=.=.n n n n z z z b b b b ",
"' ' ' ' m m m p p p l l l , , C C Z Z A A A A 9 9 9 9 9 9 9 9 9 9 A A 9 9 C C * * O.z z z r r r r d d d #.#.#.#.",
"' ' ' ' m m m p p p l l l , , C C Z Z A A A A 9 9 9 9 9 9 9 9 9 9 A A 9 9 C C * * O.z z z r r r r d d d #.#.#.#.",
"' ' ' ' m m m p p p l l l ; ; V V                                         Z Z - - O.z z z r r r r d d d #.#.#.#.",
"e e e e k k k v v v l l l ; ; V V                                         Z Z - - O.z z z r r r r d d d #.#.#.#.",
"e e e e k k k v v v v R R , , 9 9                                         A A , , R J J J b b b b } } } p p p p ",
"e e e e k k k v v v v R R , , 9 9                                         A A , , R J J J b b b b } } } p p p p ",
"e e e e k k k v v v v R R * * 9 9                                         9 9 * * R J J J b b b b } } } p p p p ",
"` ` ` ` k k k O.O.O.O.h h * * 9 9                                         9 9 * * } X.X.X.a a a a x x x m m m m ",
"` ` ` ` k k k O.O.O.O.h h * * 9 9                                         9 9 * * } X.X.X.a a a a x x x m m m m ",
"` ` ` ` k k k O.O.O.O.h h , , S S             -.-.                        S S , , } X.X.X.a -.-.a x x x m m m m ",
"Q Q Q Q Q Q Q t t t t { { , , S S             -.-.                        S S , , } X.X.X.a -.-.a x x x m m m m ",
"Q Q Q Q Q Q Q t t t t { { - - Z Z         -.-.    -.-.                    Z Z - - h t t -.-.x x -.-.H H U U U U ",
"Q Q Q Q Q Q Q t t t t { { - - Z Z         -.-.    -.-.                    Z Z - - h t t -.-.x x -.-.H H U U U U ",
"Q Q Q Q Q Q Q t t t t { { , , S S             -.-.                        S S * * h t t t x -.-.x H H H U U U U ",
"a a a a ~ ~ ~ [ [ [ [ K K , , S S             -.-.                        S S * * o.L L L } -.-.} R R R J J J J ",
"a a a a ~ ~ ~ [ [ [ [ K K * * 9 9                                         9 9 * * o.L L L } } } } R R R J J J J ",
"a a a a ~ ~ ~ [ [ [ [ K K * * 9 9                                         9 9 * * o.L L L } } } } R R R J J J J ",
"J J J J z z z ^ ^ ^ ^ b b , , A A                                         A A * * o.L L L } } } } R R R J J J J ",
"J J J J z z z ^ ^ ^ ^ b b , , A A                                         A A * * f J J J ) ) ) ) s s s  . . . .",
"J J J J z z -.-.^ ^ ^ b b - - V V                                         V V - - f J J J ) ) ) ) s s s  . . . .",
"J J J J z z -.-.^ ^ ^ b b - - V V                                         V V - - f J J J ) ) ) ) s s s  . . . .",
"} } } } -.-.! #.-.-.#....., , S S                             -.-.        S S , , P k k k I I I I } } } a a a a ",
"} } } } -.-.! #.-.-.#....., , S S                             -.-.        S S , , P k k k I I I I } } } a a a a ",
"} } } } ! ! -.-.#.#.#....., , C C 9 9 9 9 S S S S 9 9 S S -.-.9 9 -.-.S S C C , , P k k k I I I I } } } a a a a ",
"R R R R g g -.-.$.$.$.m m , , C C 9 9 9 9 S S S S 9 9 S S -.-.9 9 -.-.S S C C , ,  .H H H @.@.@.@./ / / f f f f ",
"R R R R g g g $.$.$.$.m m + + - - : : ; ; ; ; : : ; ; - - - - -.-.; ; = = ; ; * *  .H H H @.@.@.-.-./ / f f f f ",
"R R R R g g g $.$.$.$.m m + + - - : : ; ; ; ; : : ; ; - - - - -.-.; ; = = ; ; * *  .H H H @.@.@.-.-./ / f f f f ",
"R R R R g g g $.$.$.$.m m 1 1 * * > > > > > > & & % % % % % % > > > > * * * * . .  .H H H @.-.-.@./ -.-.f f f f ",
"! ! ! ! / / / R R R R [ [ 1 1 * * > > > > > > & & % % % % % % > > > > * * * * . . h J J J x -.-.x } -.-.J J J J ",
"! ! ! ! / / / R R R R [ [ -.-.w w q q w w w w 8 8 < < < < < < 0 0 w w w w w w # # h J J J x x x -.-.} } J J J J ",
"! ! ! ! / / / R R R R [ [ -.-.w w q q w w w w 8 8 < < < < < < 0 0 w w w w w w # # h J J J x x x -.-.} } J J J J ",
"j j j j O.O.O.l l l l -.-.2 2 -.-.V V V V V V 6 6 5 5 5 5 7 7 V V V V V V B B + + h J J J x x x x } } } J J J J ",
"j j j j O.O.O.l l l l -.-.2 2 -.-.V V V V V V 6 6 5 5 5 5 7 7 V V V V V V B B + + u @.@.@.s s s s p p p v v v v ",
"j j j j O.O.O.l l l l ' ' -.-.G G G G G G N N M M G G G G F F F F F F G G S S O O u @.@.@.s s s s p p p v v v v ",
"j j j j O.O.O.l l l l ' ' -.-.G G G G G G N N M M G G G G F F F F F F G G S S O O u @.@.@.s s s s p p p v v v v ",
"%.%.%.%.R R R f f f f v v 1 1 M M M M M M G G F F F F M M M M M M N N G G 9 9 O O p ( ( ( [ [ [ [ y y y R R R R ",
"%.%.%.%.R R R f f f f v v 1 1 M M M M M M G G F F F F M M M M M M N N G G 9 9 O O p ( ( ( [ [ [ [ y y y R R R R ",
"%.%.%.%.R R R f f f f v v 3 3 F F F F G G G G M M M M M M M M F F F F F F A A O O p ( ( ( [ [ [ [ y y y R R R R ",
"f f f f | | | e e e e P P 3 3 F F F F G G G G M M M M M M M M F F F F F F A A O O ! ) ) ) [ [ [ [ y y y R R R R ",
"f f f f | | | e e e e P P 2 2 D D N N D D D D D D N N N N N N N N N N D D V V + + ! ) ) ) ) x x x | | | +.+.+.+.",
"f f f f | | | e e e e P P 2 2 D D N N D D D D D D N N N N N N N N N N D D V V + + ! ) ) ) ) x x x | | | +.+.+.+.",
"f f f f | | | e e e e P P 3 3 G G G G G G M M G G M M M M M M M M M M F F S S # # ! ) ) ) ) x x x | | | +.+.+.+.",
"' ' ' ' _ _ _ &.&.&.&.u u 3 3 G G G G G G M M G G M M M M M M M M M M F F S S # # z  . . . .^ ^ ^ b b b y y y y ",
"' ' ' ' _ _ _ &.&.&.&.u u 3 3 S S 9 9 9 9 S S S S 9 9 S S S S 9 9 A A S S C C # # z  . . . .^ ^ ^ b b b y y y y ",
"' ' ' ' _ _ _ &.&.&.&.u u 3 3 S S 9 9 9 9 S S S S 9 9 S S S S 9 9 A A S S C C # # z  . . . .^ ^ ^ b b b y y y y ",
"k k k k T T T x x x x c c + + + + $ $ @ @ @ @ $ $ @ @ + + + + + + @ @ o o @ @ X X  .j j j j K K K x x x y y y y ",
"k k k k T T T x x x x c c + + + + $ $ @ @ @ @ $ $ @ @ + + + + + + @ @ o o @ @ X X  .j j j j K K K x x x x / / / ",
"k k k k T T T x x x x c c c ] ] ] ] E E E I I I I I I I H H H *.*.*.*.i i i i  . . .j j j j K K K x x x x / / / ",
"k k k k T T T x x x x c c c ] ] ] ] E E E I I I I I I I H H H *.*.*.*.i i i i  . . .j j j j K K K x x x x / / / "
};
