/* XPM */
static char *result[] = {
/* columns rows colors chars-per-pixel */
"31 31 45 1 ",
"  c black",
". c #1F1C17",
"X c #211D17",
"o c #27231E",
"O c #28241D",
"+ c #2A251D",
"@ c #2A251E",
"# c #2B261F",
"$ c #2C251D",
"% c #2C271E",
"& c #2C271F",
"* c #332E25",
"= c #322D26",
"- c #362F25",
"; c #352F26",
": c #382F25",
"> c #363026",
", c #373127",
"< c #45351A",
"1 c #413B2F",
"2 c #453C2F",
"3 c #463E32",
"4 c #614116",
"5 c #734F1E",
"6 c #77501C",
"7 c #614927",
"8 c #7F5F22",
"9 c #755429",
"0 c #73562E",
"q c #775A30",
"w c #8F691D",
"e c #A76E1F",
"r c #825B26",
"t c #8E6126",
"y c #84622F",
"u c #926323",
"i c #90662A",
"p c #956C2E",
"a c #A26B23",
"s c #A47227",
"d c #AB792D",
"f c #FFF200",
"g c #A5A5A5",
"h c #CDCDCD",
"j c None",
/* pixels */
"jjjjjjjjjjjjjjjjjjjjjjjjjjjjjjj",
"jjjjjjjjjjjjjjjjjjjjjjjjjjjjjjj",
"jjjjjjjjjjjjjjjjjjjjjjjjjjjjjjj",
"jjjjjjjjjjjjjjhgjjjjjjjjjjjjjjj",
"jjjjjjjj#***,,>*,,,,,Ojjjjjjjjj",
"jjjjjjjj,yuii88888i8y*jjjjjjjjj",
"jjjjjjjj;t          u-jjjjjjjjj",
"jjjjjjjj,8          i,jjjjjjjjj",
"jjjjjjjj*8          8*jjjjjjjjj",
"jjjjjjjj,p   f      p,jjfjjjjjj",
"jjjjjjjj-u  f f     u-jfjfjjjjj",
"jjjjjjjj,p   f      p*jjfjjjjjj",
"jjjjjjjj*8          8*jjjjjjjjj",
"jjjjjjjj,i          i*jjjjjjjjj",
"jjjjjfjj-t          t-jjjjjjjjj",
"jjjjfjfj,p       f  p,jjjjjjjjj",
"jjjjjfjj,y88pp8pf8fpy,jjjjjjjjj",
"jjjjjjjj+-:;;:;--f;=;*jjjfjjjjj",
"jjjjjjjj1*>>>&%%%>>**.jjfjfjjjj",
"jjjjjjjjfq0qq7<<<9qqq#jjjfjjjjj",
"jjjjjjjf2fttt5446tttr+jjjjjjjjj",
"jjjjjjjjfdddewddsssdpOjjjjjjjjj",
"jjjjjjjj1wwwdsswwwed8Ojjjjjjjjj",
"jjjjjjjj3ssddwwwwsssiOjjjjjjjjj",
"jjjjjjjj2aeaaaeeeeeat+jjjjjjjjj",
"jjjjjjjj3dddwdwwwwwsp#jjjjjjjjj",
"jjjjjjjj3p88pp8pp8ipy#jjjjjjjjj",
"jjjjjjjj++$@@$@+++@o@Xjjjjjjjjj",
"jjjjjjjjjjjjjjjjjjjjjjjjjjjjjjj",
"jjjjjjjjjjjjjjjjjjjjjjjjjjjjjjj",
"jjjjjjjjjjjjjjjjjjjjjjjjjjjjjjj"
};
