/* XPM */
static char *result[] = {
/* columns rows colors chars-per-pixel */
"31 31 49 1 ",
"  c #1F1C17",
". c #211D17",
"X c #27231E",
"o c #28241D",
"O c #2A251D",
"+ c #2A251E",
"@ c #2B261F",
"# c #2C251D",
"$ c #2C271E",
"% c #2C271F",
"& c #332E25",
"* c #363026",
"= c #45351A",
"- c #543E16",
"; c #413B2F",
": c #453C2F",
"> c #443C30",
", c #453D31",
"< c #463E32",
"1 c #614116",
"2 c #734F1E",
"3 c #77501C",
"4 c #614927",
"5 c #7F5F22",
"6 c #795825",
"7 c #755429",
"8 c #73562E",
"9 c #775A30",
"0 c #767676",
"q c #855C1F",
"w c #885919",
"e c #8F691D",
"r c #A76E1F",
"t c #825B26",
"y c #8B6224",
"u c #8E6126",
"i c #84622F",
"p c #926323",
"a c #90662A",
"s c #956C2E",
"d c #A26B23",
"f c #A47227",
"g c #AB792D",
"h c #868686",
"j c gray57",
"k c #A5A5A5",
"l c gray76",
"z c #CDCDCD",
"x c None",
/* pixels */
"xxxxxxxxxxxxxxxxxxxxxxxxxxxxxxx",
"xxxxxxxxxxxxxxxxxxxxxxxxxxxxxxx",
"xxxxxxxxxxxxxxxxxxxxxxxxxxxxxxx",
"xxxxxxxxxxxxxxxxxxxxxxxxxxxxxxx",
"xxxxxxxxxxxxxxxxxxxxxxxxxxxxxxx",
"xxxxxxxxxxxxxxxxxxxxxxxxxxxxxxx",
"xxxxxxxxxxxxxxxxxxxxxxxxxxxxxxx",
"xxxxxxxxxxxxxxxxxxxxxxxxxxxxxxx",
"xxxxxxxxxxxxxxxxxxxxxxxxxxxxxxx",
"xxxxxxxxxxxxxxxxxxxxxxxxxxxxxxx",
"xxxxxxxxxxxxxxxxxxxxxxxxxxxxxxx",
"xxxxxxxxxxxxxxxxxxxxxxxxxxxxxxx",
"xxxxxxxxxxxxxxxxxxxxxxxxxxxxxxx",
"xxxxxxxx<;;;<<,;<<<<<&xxxxxxxxx",
"xxxxxxxx<geeefqyggfrgoxxxxxxxxx",
"xxxxxxxx>drrrw--wdddrOxxxxxxxxx",
"xxxxxxxx<555s6zk-5paa@xxxxxxxxx",
"xxxxxxxx;&***%lh$**&& xxxxxxxxx",
"xxxxxxxx;&***%k0$**&& xxxxxxxxx",
"xxxxxxxx<98994j0=7999@xxxxxxxxx",
"xxxxxxxx:puuu2113uuutOxxxxxxxxx",
"xxxxxxxx<gggreggfffgsoxxxxxxxxx",
"xxxxxxxx;eeegffeeerg5oxxxxxxxxx",
"xxxxxxxx<ffggeeeefffaoxxxxxxxxx",
"xxxxxxxx:drdddrrrrrduOxxxxxxxxx",
"xxxxxxxx<gggegeeeeefs@xxxxxxxxx",
"xxxxxxxx<s55ss5ss5asi@xxxxxxxxx",
"xxxxxxxxOO#++#+OOO+X+.xxxxxxxxx",
"xxxxxxxxxxxxxxxxxxxxxxxxxxxxxxx",
"xxxxxxxxxxxxxxxxxxxxxxxxxxxxxxx",
"xxxxxxxxxxxxxxxxxxxxxxxxxxxxxxx"
};
