/* XPM */
static char *result[] = {
/* columns rows colors chars-per-pixel */
"64 64 112 2 ",
"   c #1F1C17",
".  c #211D17",
"X  c #392600",
"o  c #27231E",
"O  c #28241D",
"+  c #2A251D",
"@  c #2A251E",
"#  c #2B261F",
"$  c #2C251D",
"%  c #2C271E",
"&  c #2C271F",
"*  c #332E25",
"=  c #322D26",
"-  c #362F25",
";  c #352F26",
":  c #382F25",
">  c #363026",
",  c #373127",
"<  c #432600",
"1  c #432700",
"2  c #442900",
"3  c #482C00",
"4  c #45351A",
"5  c #413B2F",
"6  c #453C2F",
"7  c #463E32",
"8  c #3D6334",
"9  c #614116",
"0  c #734F1E",
"q  c #77501C",
"w  c #614927",
"e  c #7F5F22",
"r  c #755429",
"t  c #73562E",
"y  c #775A30",
"u  c #436938",
"i  c #436A38",
"p  c #446A38",
"a  c #456A3A",
"s  c #466C3B",
"d  c #466F3C",
"f  c #47703C",
"g  c #47713C",
"h  c #48723C",
"j  c #48733D",
"k  c #4A743D",
"l  c #4A753D",
"z  c #4B763D",
"x  c #4C773E",
"c  c #4C7840",
"v  c #4C7940",
"b  c #4C7941",
"n  c #4D7A41",
"m  c #4E7B43",
"M  c #4E7C43",
"N  c #4F7D44",
"B  c #507E44",
"V  c #507F45",
"C  c #8F691D",
"Z  c #A76E1F",
"A  c #825B26",
"S  c #8E6126",
"D  c #84622F",
"F  c #926323",
"G  c #90662A",
"H  c #956C2E",
"J  c #A26B23",
"K  c #A47227",
"L  c #AB792D",
"P  c #518046",
"I  c #528146",
"U  c #528246",
"Y  c #548346",
"T  c #548448",
"R  c #548548",
"E  c #578649",
"W  c #568749",
"Q  c #56874A",
"!  c #58884A",
"~  c #58884B",
"^  c #59894B",
"/  c #59884C",
"(  c #5A8B4C",
")  c #5B8C4C",
"_  c #5B8D4D",
"`  c #5B8E4D",
"'  c #5C8F4E",
"]  c #5D904E",
"[  c #5D914F",
"{  c #5E9250",
"}  c #5E9350",
"|  c #5F9450",
" . c #609550",
".. c #609652",
"X. c #619652",
"o. c #629754",
"O. c #629854",
"+. c #639955",
"@. c #649A56",
"#. c #649B56",
"$. c #659C57",
"%. c #669D57",
"&. c #69A25A",
"*. c #6AA45B",
"=. c #6AA55B",
"-. c #6CA85D",
";. c #71AE5F",
":. c #70AD60",
">. c #73B062",
",. c #FFF200",
"<. c #A5A5A5",
"1. c #CDCDCD",
/* pixels */
"W W W W >.>.>.>.R R R R v v v v v v v v I I I I h h h h B B B B ` ` ` ` Q Q Q Q M M M M b b b b n n n n X.X.X.X.8 8 8 8 V V V V ",
"W W W W >.>.>.>.R R R R v v v v v v v v I I I I h h h h B B B B ` ` ` ` Q Q Q Q M M M M b b b b n n n n X.X.X.X.8 8 8 8 V V V V ",
"W W W W >.>.>.>.R R R R v v v v v v v v I I I I h h h h B B B B ` ` ` ` Q Q Q Q M M M M b b b b n n n n X.X.X.X.8 8 8 8 V V V V ",
"W W W W >.>.>.>.R R R R v v v v v v v v I I I I h h h h B B B B ` ` ` ` Q Q Q Q M M M M b b b b n n n n X.X.X.X.8 8 8 8 V V V V ",
"W W W W V V V V ] ] ] ] ^ ^ ^ ^ ^ ^ ^ ^ j j j j / / / / l l l l h h h h O.O.O.O.........R R R R >.>.>.>.B B B B b b b b N N N N ",
"W W W W V V V V ] ] ] ] ^ ^ ^ ^ ^ ^ ^ ^ j j j j / / / / l l l l h h h h O.O.O.O.........R R R R >.>.>.>.B B B B b b b b N N N N ",
"W W W W V V V V ] ] ] ] ^ ^ ^ ^ ^ ^ ^ ^ j j j j / / / / l l 1.1.<.<.h h O.O.O.O.........R R R R >.>.>.>.B B B B b b b b N N N N ",
"W W W W V V V V ] ] ] ] ^ ^ ^ ^ ^ ^ ^ ^ j j j j / / / / l l 1.1.<.<.h h O.O.O.O.........R R R R >.>.>.>.B B B B b b b b N N N N ",
"} } } } V V V V f f f f v v v v v v # # * * * * * * , , , , > > * * , , , , , , , , , , O O $.$.b b b b i i i i j j j j *.*.*.*.",
"} } } } V V V V f f f f v v v v v v # # * * * * * * , , , , > > * * , , , , , , , , , , O O $.$.b b b b i i i i j j j j *.*.*.*.",
"} } } } V V V V f f f f v v ,.,.v v , , D D F F G G G G e e e e e e e e e e G G e e D D * * $.$.b b b b i i i i j j j j *.*.*.*.",
"} } } } V V V V f f f f v v ,.,.v v , , D D F F G G G G e e e e e e e e e e G G e e D D * * $.$.b b b b i i i i j j j j *.*.*.*.",
"u u u u c c c c M M M M ,.,.! ! ,.,.; ; S S 1 1 1 1 1 1 1 1 1 1 1 1 1 1 < < < < < < F F - - ! ! I I I I N N N N X.X.X.X.f f f f ",
"u u u u c c c c M M M M ,.,.! ! ,.,.; ; S S 1 1 1 1 1 1 1 1 1 1 1 1 1 1 < < < < < < F F - - ! ! I I I I N N N N X.X.X.X.f f f f ",
"u u u u c c c c M M M M ! ! ,.,.Y Y , , e e X X X X 3 3 3 3 X X 3 3 X X X X ,.,.2 2 G G , , ! ! ,.,.I I N N N N X.X.X.X.f f f f ",
"u u u u c c c c M M M M ! ! ,.,.Y Y , , e e X X X X 3 3 3 3 X X 3 3 X X X X ,.,.2 2 G G , , ! ! ,.,.I I N N N N X.X.X.X.f f f f ",
"{ { { { c c c c $.$.$.$.z z z z #.#.* * e e 2 2 ,.,.2 2 3 3 X X 2 2 2 2 ,.,.2 2 ,.,.e e * * ,.,.@.@.,.,.g g g g n n n n V V V V ",
"{ { { { c c c c $.$.$.$.z z z z #.#.* * e e 2 2 ,.,.2 2 3 3 X X 2 2 2 2 ,.,.2 2 ,.,.e e * * ,.,.@.@.,.,.g g g g n n n n V V V V ",
"{ { { { c c c c $.$.$.$.z z z z #.#., , H H ,.,.3 3 ,.,.3 3 X X X X X X 1 1 ,.,.3 3 H H , , X.X.,.,.@.@.g g g g n n n n V V V V ",
"{ { { { c c c c $.$.$.$.z z z z #.#., , H H ,.,.3 3 ,.,.3 3 X X X X X X 1 1 ,.,.3 3 H H , , X.X.,.,.@.@.g g g g n n n n V V V V ",
"/ / / / / / / / p p p p ........z z - - F F < < ,.,.< < < < 1 1 1 1 1 1 < < < < < < F F - - z z p p p p n n n n P P P P E E E E ",
"/ / / / / / / / p p p p ........z z - - F F < < ,.,.< < < < 1 1 1 1 1 1 < < < < < < F F - - z z p p p p n n n n P P P P E E E E ",
"/ / / / / / / / p p p p ........z z , , H H 3 3 3 3 1 1 X X 3 3 3 3 2 2 2 2 2 2 3 3 H H * * z z p p p p n n n n P P P P E E E E ",
"/ / / / / / / / p p p p ........z z , , H H 3 3 3 3 1 1 X X 3 3 3 3 2 2 2 2 2 2 3 3 H H * * z z p p p p n n n n P P P P E E E E ",
"g g g g ) ) ) )  . . . .U U U U T T * * e e X X X X 3 3 2 2 2 2 X X X X X X 1 1 3 3 e e * * #.#.Y Y Y Y X.X.X.X.! ! ! ! I I I I ",
"g g g g ) ) ) )  . . . .U U U U T T * * e e X X X X 3 3 2 2 2 2 X X X X X X 1 1 3 3 e e * * #.#.Y Y Y Y X.X.X.X.! ! ! ! I I I I ",
"g g g g ) ) ) )  . . . .,.,.U U T T , , G G 2 2 3 3 3 3 X X X X X X X X 2 2 ,.,.2 2 G G * * #.#.Y Y Y Y X.X.X.X.! ! ! ! I I I I ",
"g g g g ) ) ) )  . . . .,.,.U U T T , , G G 2 2 3 3 3 3 X X X X X X X X 2 2 ,.,.2 2 G G * * #.#.Y Y Y Y X.X.X.X.! ! ! ! I I I I ",
"I I I I b b b b _ _ ,.,.N N ,.,.U U - - S S ,.,.< < < < < < 1 1 1 1 1 1 ,.,.1 1 ,.,.S S - - k k I I I I ] ] ] ] h h h h O.O.O.O.",
"I I I I b b b b _ _ ,.,.N N ,.,.U U - - S S ,.,.< < < < < < 1 1 1 1 1 1 ,.,.1 1 ,.,.S S - - k k I I I I ] ] ] ] h h h h O.O.O.O.",
"I I I I b b b b _ _ _ _ ,.,.N N U U , , ,.,.3 3 ,.,.X X 3 3 X X X X X X X X ,.,.2 2 H H , , k k I I I I ] ] ] ] h h h h O.O.O.O.",
"I I I I b b b b _ _ _ _ ,.,.N N U U , , ,.,.3 3 ,.,.X X 3 3 X X X X X X X X ,.,.2 2 H H , , k k I I I I ] ] ] ] h h h h O.O.O.O.",
"X.X.X.X.( ( ( ( *.*.*.*.+.+.+.+.#.#., , D D ,.,.e e H H H H e e H H H H e e G G H H D D , , T T c c c c R R R R X.X.X.X.g g g g ",
"X.X.X.X.( ( ( ( *.*.*.*.+.+.+.+.#.#., , D D ,.,.e e H H H H e e H H H H e e G G H H D D , , T T c c c c R R R R X.X.X.X.g g g g ",
"X.X.X.X.( ( ( ( *.*.*.*.+.+.+.+.#.#.+ + - - : : ; ; ; ; : : ; ; - - - - - - ; ; = = ; ; * * T T c c ,.,.R R R R X.X.X.X.g g g g ",
"X.X.X.X.( ( ( ( *.*.*.*.+.+.+.+.#.#.+ + - - : : ; ; ; ; : : ; ; - - - - - - ; ; = = ; ; * * T T c c ,.,.R R R R X.X.X.X.g g g g ",
"! ! ! ! l l l l =.=.=.=.V V V V B B 5 5 * * > > > > > > & & % % % % % % > > > > * * * *     O.O.,.,.P P ,.,.&.&.` ` ` ` k k k k ",
"! ! ! ! l l l l =.=.=.=.V V V V B B 5 5 * * > > > > > > & & % % % % % % > > > > * * * *     O.O.,.,.P P ,.,.&.&.` ` ` ` k k k k ",
"! ! ! ! l l l l =.=.=.=.V V V V B B 7 7 y y t t y y y y w w 4 4 4 4 4 4 r r y y y y ,.,.# # O.O.P P ,.,.&.&.&.&.` ` ` ` k k k k ",
"! ! ! ! l l l l =.=.=.=.V V V V B B 7 7 y y t t y y y y w w 4 4 4 4 4 4 r r y y y y ,.,.# # O.O.P P ,.,.&.&.&.&.` ` ` ` k k k k ",
"( ( ( ( ` ` ` ` ! ! ! !  . . . .l l 6 6 F F S S S S S S 0 0 9 9 9 9 q q S S S S ,.,.A A ,.,.z z I I I I n n n n X.X.X.X.I I I I ",
"( ( ( ( ` ` ` ` ! ! ! !  . . . .l l 6 6 F F S S S S S S 0 0 9 9 9 9 q q S S S S ,.,.A A ,.,.z z I I I I n n n n X.X.X.X.I I I I ",
"( ( ( ( ` ` ` ` ! ! ,.,. . . . .l l 7 7 L L L L L L ,.,.C C L L L L K K K K K K L L ,.,.O O z z I I I I n n n n X.X.X.X.I I I I ",
"( ( ( ( ` ` ` ` ! ! ,.,. . . . .l l 7 7 L L L L L L ,.,.C C L L L L K K K K K K L L ,.,.O O z z I I I I n n n n X.X.X.X.I I I I ",
"x x x x $.$.$.$.,.,.v v ,.,.} } ! ! 5 5 C C C C ,.,.L L ,.,.K K C C C C C C Z Z L L e e O O s s &.&.&.&.h h h h f f f f M M M M ",
"x x x x $.$.$.$.,.,.v v ,.,.} } ! ! 5 5 C C C C ,.,.L L ,.,.K K C C C C C C Z Z L L e e O O s s &.&.&.&.h h h h f f f f M M M M ",
"x x x x $.$.$.$.v v ,.,.} } } } ! ! 7 7 K K K K L L ,.,.C C C C C C C C K K K K K K G G O O s s &.&.&.&.h h h h f f f f M M M M ",
"x x x x $.$.$.$.v v ,.,.} } } } ! ! 7 7 K K K K L L ,.,.C C C C C C C C K K K K K K G G O O s s &.&.&.&.h h h h f f f f M M M M ",
"-.-.-.-.! ! ! ! k k k k M M M M / / 6 6 J J Z Z J J J J J J Z Z Z Z Z Z Z Z Z Z J J S S + + f f ' ' ' ' ,.,. . .a a a a ! ! ! ! ",
"-.-.-.-.! ! ! ! k k k k M M M M / / 6 6 J J Z Z J J J J J J Z Z Z Z Z Z Z Z Z Z J J S S + + f f ' ' ' ' ,.,. . .a a a a ! ! ! ! ",
"-.-.-.-.! ! ! ! k k k k M M M M / / 7 7 L L L L L L C C L L C C C C C C C C C C K K H H # # f f ' ' ,.,. . .,.,.a a a a ! ! ! ! ",
"-.-.-.-.! ! ! ! k k k k M M M M / / 7 7 L L L L L L C C L L C C C C C C C C C C K K H H # # f f ' ' ,.,. . .,.,.a a a a ! ! ! ! ",
"k k k k o.o.o.o.u u u u T T T T f f 7 7 H H e e e e H H H H e e H H H H e e G G H H D D # # ( ( ] ] ] ] ,.,.n n o.o.o.o.%.%.%.%.",
"k k k k o.o.o.o.u u u u T T T T f f 7 7 H H e e e e H H H H e e H H H H e e G G H H D D # # ( ( ] ] ] ] ,.,.n n o.o.o.o.%.%.%.%.",
"k k k k o.o.o.o.u u u u T T T T f f + + + + $ $ @ @ @ @ $ $ @ @ + + + + + + @ @ o o @ @ . . ( ( ] ] ] ] n n n n o.o.o.o.%.%.%.%.",
"k k k k o.o.o.o.u u u u T T T T f f + + + + $ $ @ @ @ @ $ $ @ @ + + + + + + @ @ o o @ @ . . ( ( ] ] ] ] n n n n o.o.o.o.%.%.%.%.",
"} } } } [ [ [ [ ;.;.;.;.s s s s &.&.&.&.@.@.@.@.R R R R R R R R g g g g W W W W W W W W b b b b O.O.O.O._ _ _ _ N N N N a a a a ",
"} } } } [ [ [ [ ;.;.;.;.s s s s &.&.&.&.@.@.@.@.R R R R R R R R g g g g W W W W W W W W b b b b O.O.O.O._ _ _ _ N N N N a a a a ",
"} } } } [ [ [ [ ;.;.;.;.s s s s &.&.&.&.@.@.@.@.R R R R R R R R g g g g W W W W W W W W b b b b O.O.O.O._ _ _ _ N N N N a a a a ",
"} } } } [ [ [ [ ;.;.;.;.s s s s &.&.&.&.@.@.@.@.R R R R R R R R g g g g W W W W W W W W b b b b O.O.O.O._ _ _ _ N N N N a a a a ",
"c c c c Q Q Q Q n n n n m m m m | | | | ~ ~ ~ ~ R R R R R R R R P P P P :.:.:.:.d d d d O.O.O.O.x x x x U U U U n n n n ` ` ` ` ",
"c c c c Q Q Q Q n n n n m m m m | | | | ~ ~ ~ ~ R R R R R R R R P P P P :.:.:.:.d d d d O.O.O.O.x x x x U U U U n n n n ` ` ` ` ",
"c c c c Q Q Q Q n n n n m m m m | | | | ~ ~ ~ ~ R R R R R R R R P P P P :.:.:.:.d d d d O.O.O.O.x x x x U U U U n n n n ` ` ` ` ",
"c c c c Q Q Q Q n n n n m m m m | | | | ~ ~ ~ ~ R R R R R R R R P P P P :.:.:.:.d d d d O.O.O.O.x x x x U U U U n n n n ` ` ` ` "
};
