/* XPM */
static char *result[] = {
/* columns rows colors chars-per-pixel */
"64 64 113 2 ",
"   c #1F1C17",
".  c #211D17",
"X  c #27231E",
"o  c #28241D",
"O  c #2A251D",
"+  c #2A251E",
"@  c #2B261F",
"#  c #2C251D",
"$  c #2C271E",
"%  c #2C271F",
"&  c #332E25",
"*  c #363026",
"=  c #45351A",
"-  c #543E16",
";  c #413B2F",
":  c #453C2F",
">  c #443C30",
",  c #453D31",
"<  c #463E32",
"1  c #3D6334",
"2  c #614116",
"3  c #734F1E",
"4  c #77501C",
"5  c #614927",
"6  c #7F5F22",
"7  c #795825",
"8  c #755429",
"9  c #73562E",
"0  c #775A30",
"q  c #416838",
"w  c #436938",
"e  c #436A38",
"r  c #446A38",
"t  c #456A3A",
"y  c #466C3B",
"u  c #466F3C",
"i  c #47703C",
"p  c #47713C",
"a  c #48723C",
"s  c #48733D",
"d  c #4A743D",
"f  c #4A753D",
"g  c #4B763D",
"h  c #4C773E",
"j  c #4C7840",
"k  c #4C7940",
"l  c #4C7941",
"z  c #4D7A41",
"x  c #4E7B43",
"c  c #4E7C43",
"v  c #4F7D44",
"b  c #507E44",
"n  c #507F45",
"m  c #767676",
"M  c #855C1F",
"N  c #885919",
"B  c #8F691D",
"V  c #A76E1F",
"C  c #825B26",
"Z  c #8B6224",
"A  c #8E6126",
"S  c #84622F",
"D  c #926323",
"F  c #90662A",
"G  c #956C2E",
"H  c #A26B23",
"J  c #A47227",
"K  c #AB792D",
"L  c #518046",
"P  c #528146",
"I  c #528246",
"U  c #548346",
"Y  c #548448",
"T  c #548548",
"R  c #578649",
"E  c #568749",
"W  c #56874A",
"Q  c #58884A",
"!  c #58884B",
"~  c #59894B",
"^  c #59884C",
"/  c #5A8B4C",
"(  c #5B8C4C",
")  c #5B8D4D",
"_  c #5B8E4D",
"`  c #5C8F4E",
"'  c #5D904E",
"]  c #5D914F",
"[  c #5E9250",
"{  c #5E9350",
"}  c #5F9450",
"|  c #609550",
" . c #609652",
".. c #619652",
"X. c #629754",
"o. c #629854",
"O. c #639955",
"+. c #649A56",
"@. c #649B56",
"#. c #659C57",
"$. c #669D57",
"%. c #69A25A",
"&. c #6AA45B",
"*. c #6AA55B",
"=. c #6CA85D",
"-. c #71AE5F",
";. c #70AD60",
":. c #73B062",
">. c #868686",
",. c gray57",
"<. c #A5A5A5",
"1. c gray76",
"2. c #CDCDCD",
/* pixels */
"E E E E :.:.:.:.T T T T k k k k k k k k P P P P a a a a b b b b _ _ _ _ W W W W c c c c l l l l z z z z ........1 1 1 1 n n n n ",
"E E E E :.:.:.:.T T T T k k k k k k k k P P P P a a a a b b b b _ _ _ _ W W W W c c c c l l l l z z z z ........1 1 1 1 n n n n ",
"E E E E :.:.:.:.T T T T k k k k k k k k P P P P a a a a b b b b _ _ _ _ W W W W c c c c l l l l z z z z ........1 1 1 1 n n n n ",
"E E E E :.:.:.:.T T T T k k k k k k k k P P P P a a a a b b b b _ _ _ _ W W W W c c c c l l l l z z z z ........1 1 1 1 n n n n ",
"E E E E n n n n ' ' ' ' ~ ~ ~ ~ ~ ~ ~ ~ s s s s ^ ^ ^ ^ f f f f a a a a o.o.o.o. . . . .T T T T :.:.:.:.b b b b l l l l v v v v ",
"E E E E n n n n ' ' ' ' ~ ~ ~ ~ ~ ~ ~ ~ s s s s ^ ^ ^ ^ f f f f a a a a o.o.o.o. . . . .T T T T :.:.:.:.b b b b l l l l v v v v ",
"E E E E n n n n ' ' ' ' ~ ~ ~ ~ ~ ~ ~ ~ s s s s ^ ^ ^ ^ f f f f a a a a o.o.o.o. . . . .T T T T :.:.:.:.b b b b l l l l v v v v ",
"E E E E n n n n ' ' ' ' ~ ~ ~ ~ ~ ~ ~ ~ s s s s ^ ^ ^ ^ f f f f a a a a o.o.o.o. . . . .T T T T :.:.:.:.b b b b l l l l v v v v ",
"{ { { { n n n n i i i i k k k k k k k k z z z z I I I I I I I I I I I I ` ` ` `  . . . .#.#.#.#.l l l l e e e e s s s s &.&.&.&.",
"{ { { { n n n n i i i i k k k k k k k k z z z z I I I I I I I I I I I I ` ` ` `  . . . .#.#.#.#.l l l l e e e e s s s s &.&.&.&.",
"{ { { { n n n n i i i i k k k k k k k k z z z z I I I I I I I I I I I I ` ` ` `  . . . .#.#.#.#.l l l l e e e e s s s s &.&.&.&.",
"{ { { { n n n n i i i i k k k k k k k k z z z z I I I I I I I I I I I I ` ` ` `  . . . .#.#.#.#.l l l l e e e e s s s s &.&.&.&.",
"w w w w j j j j c c c c Q Q Q Q U U U U ^ ^ ^ ^ i i i i Y Y Y Y a a a a g g g g n n n n Q Q Q Q P P P P v v v v ........i i i i ",
"w w w w j j j j c c c c Q Q Q Q U U U U ^ ^ ^ ^ i i i i Y Y Y Y a a a a g g g g n n n n Q Q Q Q P P P P v v v v ........i i i i ",
"w w w w j j j j c c c c Q Q Q Q U U U U ^ ^ ^ ^ i i i i Y Y Y Y a a a a g g g g n n n n Q Q Q Q P P P P v v v v ........i i i i ",
"w w w w j j j j c c c c Q Q Q Q U U U U ^ ^ ^ ^ i i i i Y Y Y Y a a a a g g g g n n n n Q Q Q Q P P P P v v v v ........i i i i ",
"[ [ [ [ j j j j #.#.#.#.g g g g @.@.@.@.@.@.@.@.z z z z @.@.@.@.=.=.=.=.q q q q s s s s ........+.+.+.+.p p p p z z z z n n n n ",
"[ [ [ [ j j j j #.#.#.#.g g g g @.@.@.@.@.@.@.@.z z z z @.@.@.@.=.=.=.=.q q q q s s s s ........+.+.+.+.p p p p z z z z n n n n ",
"[ [ [ [ j j j j #.#.#.#.g g g g @.@.@.@.@.@.@.@.z z z z @.@.@.@.=.=.=.=.q q q q s s s s ........+.+.+.+.p p p p z z z z n n n n ",
"[ [ [ [ j j j j #.#.#.#.g g g g @.@.@.@.@.@.@.@.z z z z @.@.@.@.=.=.=.=.q q q q s s s s ........+.+.+.+.p p p p z z z z n n n n ",
"^ ^ ^ ^ ^ ^ ^ ^ r r r r  . . . .g g g g W W W W W W W W / / / / l l l l E E E E z z z z g g g g r r r r z z z z L L L L R R R R ",
"^ ^ ^ ^ ^ ^ ^ ^ r r r r  . . . .g g g g W W W W W W W W / / / / l l l l E E E E z z z z g g g g r r r r z z z z L L L L R R R R ",
"^ ^ ^ ^ ^ ^ ^ ^ r r r r  . . . .g g g g W W W W W W W W / / / / l l l l E E E E z z z z g g g g r r r r z z z z L L L L R R R R ",
"^ ^ ^ ^ ^ ^ ^ ^ r r r r  . . . .g g g g W W W W W W W W / / / / l l l l E E E E z z z z g g g g r r r r z z z z L L L L R R R R ",
"p p p p ( ( ( ( | | | | I I I I Y Y Y Y g g g g c c c c a a a a h h h h l l l l &.&.&.&.@.@.@.@.U U U U ........Q Q Q Q P P P P ",
"p p p p ( ( ( ( | | | | I I I I Y Y Y Y g g g g c c c c a a a a h h h h l l l l &.&.&.&.@.@.@.@.U U U U ........Q Q Q Q P P P P ",
"p p p p ( ( ( ( | | | | I I I I Y Y < < ; ; ; ; ; ; < < < < , , ; ; < < < < < < < < < < & & @.@.U U U U ........Q Q Q Q P P P P ",
"p p p p ( ( ( ( | | | | I I I I Y Y < < ; ; ; ; ; ; < < < < , , ; ; < < < < < < < < < < & & @.@.U U U U ........Q Q Q Q P P P P ",
"P P P P l l l l ) ) ) ) v v v v I I < < K K B B B B B B J J M M Z Z K K K K J J V V K K o o d d P P P P ' ' ' ' a a a a o.o.o.o.",
"P P P P l l l l ) ) ) ) v v v v I I < < K K B B B B B B J J M M Z Z K K K K J J V V K K o o d d P P P P ' ' ' ' a a a a o.o.o.o.",
"P P P P l l l l ) ) ) ) v v v v I I > > H H V V V V V V N N - - - - N N H H H H H H V V O O d d P P P P ' ' ' ' a a a a o.o.o.o.",
"P P P P l l l l ) ) ) ) v v v v I I > > H H V V V V V V N N - - - - N N H H H H H H V V O O d d P P P P ' ' ' ' a a a a o.o.o.o.",
"......../ / / / &.&.&.&.O.O.O.O.@.@.< < 6 6 6 6 6 6 G G 7 7 2.2.<.<.- - 6 6 D D F F F F @ @ Y Y j j j j T T T T ........p p p p ",
"......../ / / / &.&.&.&.O.O.O.O.@.@.< < 6 6 6 6 6 6 G G 7 7 2.2.<.<.- - 6 6 D D F F F F @ @ Y Y j j j j T T T T ........p p p p ",
"......../ / / / &.&.&.&.O.O.O.O.@.@.; ; & & * * * * * * % % 1.1.>.>.$ $ * * * * & & & &     Y Y j j j j T T T T ........p p p p ",
"......../ / / / &.&.&.&.O.O.O.O.@.@.; ; & & * * * * * * % % 1.1.>.>.$ $ * * * * & & & &     Y Y j j j j T T T T ........p p p p ",
"Q Q Q Q f f f f *.*.*.*.n n n n b b ; ; & & * * * * * * % % <.<.m m $ $ * * * * & & & &     o.o.L L L L %.%.%.%._ _ _ _ d d d d ",
"Q Q Q Q f f f f *.*.*.*.n n n n b b ; ; & & * * * * * * % % <.<.m m $ $ * * * * & & & &     o.o.L L L L %.%.%.%._ _ _ _ d d d d ",
"Q Q Q Q f f f f *.*.*.*.n n n n b b < < 0 0 9 9 0 0 0 0 5 5 ,.,.m m = = 8 8 0 0 0 0 0 0 @ @ o.o.L L L L %.%.%.%._ _ _ _ d d d d ",
"Q Q Q Q f f f f *.*.*.*.n n n n b b < < 0 0 9 9 0 0 0 0 5 5 ,.,.m m = = 8 8 0 0 0 0 0 0 @ @ o.o.L L L L %.%.%.%._ _ _ _ d d d d ",
"/ / / / _ _ _ _ Q Q Q Q | | | | f f : : D D A A A A A A 3 3 2 2 2 2 4 4 A A A A A A C C O O g g P P P P z z z z ........P P P P ",
"/ / / / _ _ _ _ Q Q Q Q | | | | f f : : D D A A A A A A 3 3 2 2 2 2 4 4 A A A A A A C C O O g g P P P P z z z z ........P P P P ",
"/ / / / _ _ _ _ Q Q Q Q | | | | f f < < K K K K K K V V B B K K K K J J J J J J K K G G o o g g P P P P z z z z ........P P P P ",
"/ / / / _ _ _ _ Q Q Q Q | | | | f f < < K K K K K K V V B B K K K K J J J J J J K K G G o o g g P P P P z z z z ........P P P P ",
"h h h h #.#.#.#.k k k k { { { { Q Q ; ; B B B B B B K K J J J J B B B B B B V V K K 6 6 o o y y %.%.%.%.a a a a i i i i c c c c ",
"h h h h #.#.#.#.k k k k { { { { Q Q ; ; B B B B B B K K J J J J B B B B B B V V K K 6 6 o o y y %.%.%.%.a a a a i i i i c c c c ",
"h h h h #.#.#.#.k k k k { { { { Q Q < < J J J J K K K K B B B B B B B B J J J J J J F F o o y y %.%.%.%.a a a a i i i i c c c c ",
"h h h h #.#.#.#.k k k k { { { { Q Q < < J J J J K K K K B B B B B B B B J J J J J J F F o o y y %.%.%.%.a a a a i i i i c c c c ",
"=.=.=.=.Q Q Q Q d d d d c c c c ^ ^ : : H H V V H H H H H H V V V V V V V V V V H H A A O O i i ` ` ` ` | | | | t t t t Q Q Q Q ",
"=.=.=.=.Q Q Q Q d d d d c c c c ^ ^ : : H H V V H H H H H H V V V V V V V V V V H H A A O O i i ` ` ` ` | | | | t t t t Q Q Q Q ",
"=.=.=.=.Q Q Q Q d d d d c c c c ^ ^ < < K K K K K K B B K K B B B B B B B B B B J J G G @ @ i i ` ` ` ` | | | | t t t t Q Q Q Q ",
"=.=.=.=.Q Q Q Q d d d d c c c c ^ ^ < < K K K K K K B B K K B B B B B B B B B B J J G G @ @ i i ` ` ` ` | | | | t t t t Q Q Q Q ",
"d d d d X.X.X.X.w w w w Y Y Y Y i i < < G G 6 6 6 6 G G G G 6 6 G G G G 6 6 F F G G S S @ @ / / ' ' ' ' z z z z X.X.X.X.$.$.$.$.",
"d d d d X.X.X.X.w w w w Y Y Y Y i i < < G G 6 6 6 6 G G G G 6 6 G G G G 6 6 F F G G S S @ @ / / ' ' ' ' z z z z X.X.X.X.$.$.$.$.",
"d d d d X.X.X.X.w w w w Y Y Y Y i i O O O O # # + + + + # # + + O O O O O O + + X X + + . . / / ' ' ' ' z z z z X.X.X.X.$.$.$.$.",
"d d d d X.X.X.X.w w w w Y Y Y Y i i O O O O # # + + + + # # + + O O O O O O + + X X + + . . / / ' ' ' ' z z z z X.X.X.X.$.$.$.$.",
"{ { { { ] ] ] ] -.-.-.-.y y y y %.%.%.%.+.+.+.+.T T T T T T T T p p p p E E E E E E E E l l l l o.o.o.o.) ) ) ) v v v v t t t t ",
"{ { { { ] ] ] ] -.-.-.-.y y y y %.%.%.%.+.+.+.+.T T T T T T T T p p p p E E E E E E E E l l l l o.o.o.o.) ) ) ) v v v v t t t t ",
"{ { { { ] ] ] ] -.-.-.-.y y y y %.%.%.%.+.+.+.+.T T T T T T T T p p p p E E E E E E E E l l l l o.o.o.o.) ) ) ) v v v v t t t t ",
"{ { { { ] ] ] ] -.-.-.-.y y y y %.%.%.%.+.+.+.+.T T T T T T T T p p p p E E E E E E E E l l l l o.o.o.o.) ) ) ) v v v v t t t t ",
"j j j j W W W W z z z z x x x x } } } } ! ! ! ! T T T T T T T T L L L L ;.;.;.;.u u u u o.o.o.o.h h h h I I I I z z z z _ _ _ _ ",
"j j j j W W W W z z z z x x x x } } } } ! ! ! ! T T T T T T T T L L L L ;.;.;.;.u u u u o.o.o.o.h h h h I I I I z z z z _ _ _ _ ",
"j j j j W W W W z z z z x x x x } } } } ! ! ! ! T T T T T T T T L L L L ;.;.;.;.u u u u o.o.o.o.h h h h I I I I z z z z _ _ _ _ ",
"j j j j W W W W z z z z x x x x } } } } ! ! ! ! T T T T T T T T L L L L ;.;.;.;.u u u u o.o.o.o.h h h h I I I I z z z z _ _ _ _ "
};
