/* XPM */
static char *result[] = {
/* columns rows colors chars-per-pixel */
"33 33 45 1 ",
"  c black",
". c #1F1C17",
"X c #211D17",
"o c #27231E",
"O c #28241D",
"+ c #2A251D",
"@ c #2A251E",
"# c #2B261F",
"$ c #2C251D",
"% c #2C271E",
"& c #2C271F",
"* c #332E25",
"= c #322D26",
"- c #362F25",
"; c #352F26",
": c #382F25",
"> c #363026",
", c #373127",
"< c #45351A",
"1 c #413B2F",
"2 c #453C2F",
"3 c #463E32",
"4 c #614116",
"5 c #734F1E",
"6 c #77501C",
"7 c #614927",
"8 c #7F5F22",
"9 c #755429",
"0 c #73562E",
"q c #775A30",
"w c #8F691D",
"e c #A76E1F",
"r c #825B26",
"t c #8E6126",
"y c #84622F",
"u c #926323",
"i c #90662A",
"p c #956C2E",
"a c #A26B23",
"s c #A47227",
"d c #AB792D",
"f c #FFF200",
"g c #A5A5A5",
"h c #CDCDCD",
"j c None",
/* pixels */
"jjjjjjjjjjjjjjjjjjjjjjjjjjjjjjjjj",
"jjjjjjjjjjjjjjjjjjjjjjjjjjjjjjjjj",
"jjjjjjjjjjjjjjjjjjjjjjjjjjjjjjjjj",
"jjjjjjjjjjjjjjjjjjjjjjjjjjjjjjjjj",
"jjjjjjjjjjjjjjjhgjjjjjjjjjjjjjjjj",
"jjjjjjjjj#***,,>*,,,,,Ojjjjjjjjjj",
"jjjjjjjjj,yuii88888i8y*jjjjjjjjjj",
"jjjjjjjjj;t          u-jjjjjjjjjj",
"jjjjjjjjj,8          i,jjjjjjjjjj",
"jjjjjjjjj*8          8*jjjjjjjjjj",
"jjjjjjjjj,p   f      p,jjfjjjjjjj",
"jjjjjjjjj-u  f f     u-jfjfjjjjjj",
"jjjjjjjjj,p   f      p*jjfjjjjjjj",
"jjjjjjjjj*8          8*jjjjjjjjjj",
"jjjjjjjjj,i          i*jjjjjjjjjj",
"jjjjjjfjj-t          t-jjjjjjjjjj",
"jjjjjfjfj,p       f  p,jjjjjjjjjj",
"jjjjjjfjj,y88pp8pf8fpy,jjjjjjjjjj",
"jjjjjjjjj+-:;;:;--f;=;*jjjfjjjjjj",
"jjjjjjjjj1*>>>&%%%>>**.jjfjfjjjjj",
"jjjjjjjjjfq0qq7<<<9qqq#jjjfjjjjjj",
"jjjjjjjjf2fttt5446tttr+jjjjjjjjjj",
"jjjjjjjjjfdddewddsssdpOjjjjjjjjjj",
"jjjjjjjjj1wwwdsswwwed8Ojjjjjjjjjj",
"jjjjjjjjj3ssddwwwwsssiOjjjjjjjjjj",
"jjjjjjjjj2aeaaaeeeeeat+jjjjjjjjjj",
"jjjjjjjjj3dddwdwwwwwsp#jjjjjjjjjj",
"jjjjjjjjj3p88pp8pp8ipy#jjjjjjjjjj",
"jjjjjjjjj++$@@$@+++@o@Xjjjjjjjjjj",
"jjjjjjjjjjjjjjjjjjjjjjjjjjjjjjjjj",
"jjjjjjjjjjjjjjjjjjjjjjjjjjjjjjjjj",
"jjjjjjjjjjjjjjjjjjjjjjjjjjjjjjjjj",
"jjjjjjjjjjjjjjjjjjjjjjjjjjjjjjjjj"
};
