/* XPM */
static char *result[] = {
/* columns rows colors chars-per-pixel */
"64 64 76 1 ",
"  c #3D6334",
". c #416838",
"X c #436938",
"o c #436A38",
"O c #446A38",
"+ c #456A3A",
"@ c #456C3A",
"# c #466C3B",
"$ c #466F3C",
"% c #47703C",
"& c #47713C",
"* c #48723C",
"= c #48733D",
"- c #4A743D",
"; c #4A753D",
": c #4B763D",
"> c #4C773E",
", c #0C5E52",
"< c #08737B",
"1 c #4C7840",
"2 c #4C7940",
"3 c #4C7941",
"4 c #4D7A41",
"5 c #4E7B43",
"6 c #4E7C43",
"7 c #4F7D44",
"8 c #507E44",
"9 c #507F45",
"0 c #518046",
"q c #528146",
"w c #528246",
"e c #548346",
"r c #548448",
"t c #548548",
"y c #578649",
"u c #568749",
"i c #56874A",
"p c #58884A",
"a c #58884B",
"s c #59894B",
"d c #59884C",
"f c #5A8B4C",
"g c #5B8C4C",
"h c #5B8D4D",
"j c #5B8E4D",
"k c #5C8F4E",
"l c #5D904E",
"z c #5D914F",
"x c #5E9250",
"c c #5E9350",
"v c #5F9450",
"b c #609550",
"n c #609652",
"m c #619652",
"M c #629754",
"N c #629854",
"B c #639955",
"V c #649A56",
"C c #649B56",
"Z c #659C57",
"A c #669D57",
"S c #69A25A",
"D c #6AA45B",
"F c #6AA55B",
"G c #6CA85D",
"H c #71AE5F",
"J c #70AD60",
"K c #73B062",
"L c #15929B",
"P c #13ACA8",
"I c #1AC6B6",
"U c #28E1D9",
"Y c #48EEDA",
"T c #A2FBE9",
"R c #D6FFF6",
"E c white",
/* pixels */
"uuuuKKKKtttt22222222qqqq****8888jjjjiiii666633334444mmmm    9999",
"uuuuKKKKtttt22222222qqqq****8888jjjjiiii666633334444mmmm    9999",
"uuuuKKKKtttt22222222qqqq****8888jjjjiiii666633334444mmmm    9999",
"uuuuKKKKtttt22222222qqqq****8888jjjjiiii666633334444mmmm    9999",
"uuuu9999llllssssssss====dddd;;;;****NNNNnnnnttttKKKK888833337777",
"uuuu9999llllssssssss====dddd;;;;****NNNNnnnnttttKKKK888833337777",
"uuuu9999llllssssssss====dddd;;;;****NNNNnnnnttttKKKK888833337777",
"uuuu9999llllssssssss====dddd;;;;****NNNNnnnnttttKKKK888833337777",
"cccc9999%%%%222222224444wwwwwwwwwwwwkkkknnnnZZZZ3333oooo====DDDD",
"cccc9999%%%%222222224444wwwwwwwwwwwwkkkknnnnZZZZ3333oooo====DDDD",
"cccc9999%%%%222222224444wwwwwwwwwwwwkkkknnnnZZZZ3333oooo====DDDD",
"cccc9999%%%%222222224444wwwwwwwwwwwwkkkknnnnZZZZ3333oooo====DDDD",
"XXXX11116666ppppeeeedddd%%%%rrrr****::::9999ppppqqqq7777mmmm%%%%",
"XXXX11116666ppppeeeedddd%%%%rrrr****::::9999ppppqqqq7777mmmm%%%%",
"XXXX11116666ppppeeeedddd%%%%rrrr****::::9999ppppqqqq7777mmmm%%%%",
"XXXX11116666ppppeeeedddd%%%%rrrr****::::9999ppppqqqq7777mmmm%%%%",
"xxxx1111ZZZZ::::CCCCCCCC4444CCCCGGGG....====mmmmVVVV&&&&44449999",
"xxxx1111ZZZZ::::CCCCCCCC4444CCCCGGGG....====mmmmVVVV&&&&44449999",
"xxxx1111ZZZZ::::CCCCCCCC4444CCCCGGGG....====mmmmVVVV&&&&44449999",
"xxxx1111ZZZZ::::CCCCCCCC4444CCCCGGGG....====mmmmVVVV&&&&44449999",
"ddddddddOOOOnnnn::::iiiiiiii<<<<<<<<uuuu4444::::OOOO44440000yyyy",
"ddddddddOOOOnnnn::::iiiiiiii<<<<<<<<uuuu4444::::OOOO44440000yyyy",
"ddddddddOOOOnnnn::::iiiiii<<EEEEEERR<<uu4444::::OOOO44440000yyyy",
"ddddddddOOOOnnnn::::iiiiii<<EEEEEERR<<uu4444::::OOOO44440000yyyy",
"&&&&ggggbbbbwwwwrrrr::::<<EEYYYYTTRRII,,DDDDCCCCeeeemmmmppppqqqq",
"&&&&ggggbbbbwwwwrrrr::::<<EEYYYYTTRRII,,DDDDCCCCeeeemmmmppppqqqq",
"&&&&ggggbbbbwwwwrrrr::<<EEYYTTTTRRTTYYII,,DDCCCCeeeemmmmppppqqqq",
"&&&&ggggbbbbwwwwrrrr::<<EEYYTTTTRRTTYYII,,DDCCCCeeeemmmmppppqqqq",
"qqqq3333hhhh7777wwww$$<<EEYYEERREERRYYYY,,33----qqqqllll****NNNN",
"qqqq3333hhhh7777wwww$$<<EEYYEERREERRYYYY,,33----qqqqllll****NNNN",
"qqqq3333hhhh7777wwww<<EEYYEEYYYYTTTTPPIIPP,,----qqqqllll****NNNN",
"qqqq3333hhhh7777wwww<<EEYYEEYYYYTTTTPPIIPP,,----qqqqllll****NNNN",
"mmmmffffDDDDBBBBCCCC<<EEYYRRYYTTTTTTLLIIPP,,rrrr1111ttttmmmm&&&&",
"mmmmffffDDDDBBBBCCCC<<EEYYRRYYTTTTTTLLIIPP,,rrrr1111ttttmmmm&&&&",
"mmmmffffDDDDBBBBCCCC<<EEEEIITTTTTTYYLLPPPP,,rrrr1111ttttmmmm&&&&",
"mmmmffffDDDDBBBBCCCC<<EEEEIITTTTTTYYLLPPPP,,rrrr1111ttttmmmm&&&&",
"pppp;;;;FFFF99998888<<RRYYYYPPPPPPPPIIIILL,,NNNN0000SSSSjjjj----",
"pppp;;;;FFFF99998888<<RRYYYYPPPPPPPPIIIILL,,NNNN0000SSSSjjjj----",
"pppp;;;;FFFF99998888tt,,YYPPIIIIIIIIPPII,,rrNNNN0000SSSSjjjj----",
"pppp;;;;FFFF99998888tt,,YYPPIIIIIIIIPPII,,rrNNNN0000SSSSjjjj----",
"ffffjjjjppppbbbb;;;;DD,,UUPPIIIIIIIIPPTT,,mm::::qqqq4444mmmmqqqq",
"ffffjjjjppppbbbb;;;;DD,,UUPPIIIIIIIIPPTT,,mm::::qqqq4444mmmmqqqq",
"ffffjjjjppppbbbb;;;;DDDD,,LLYYYYTTTTII,,mmmm::::qqqq4444mmmmqqqq",
"ffffjjjjppppbbbb;;;;DDDD,,LLYYYYTTTTII,,mmmm::::qqqq4444mmmmqqqq",
">>>>ZZZZ2222ccccpppp>>>>rr,,,,,,,,,,,,rr8888####SSSS****%%%%6666",
">>>>ZZZZ2222ccccpppp>>>>rr,,,,,,,,,,,,rr8888####SSSS****%%%%6666",
">>>>ZZZZ2222ccccpppp>>>>rrrr5555pppprrrr8888####SSSS****%%%%6666",
">>>>ZZZZ2222ccccpppp>>>>rrrr5555pppprrrr8888####SSSS****%%%%6666",
"GGGGpppp----6666ddddeeee1111@@@@6666eeee6666%%%%kkkkbbbb++++pppp",
"GGGGpppp----6666ddddeeee1111@@@@6666eeee6666%%%%kkkkbbbb++++pppp",
"GGGGpppp----6666ddddeeee1111@@@@6666eeee6666%%%%kkkkbbbb++++pppp",
"GGGGpppp----6666ddddeeee1111@@@@6666eeee6666%%%%kkkkbbbb++++pppp",
"----MMMMXXXXrrrr%%%%dddd----KKKKzzzzttttMMMMffffllll4444MMMMAAAA",
"----MMMMXXXXrrrr%%%%dddd----KKKKzzzzttttMMMMffffllll4444MMMMAAAA",
"----MMMMXXXXrrrr%%%%dddd----KKKKzzzzttttMMMMffffllll4444MMMMAAAA",
"----MMMMXXXXrrrr%%%%dddd----KKKKzzzzttttMMMMffffllll4444MMMMAAAA",
"cccczzzzHHHH####SSSSVVVVtttttttt&&&&uuuuuuuu3333NNNNhhhh7777++++",
"cccczzzzHHHH####SSSSVVVVtttttttt&&&&uuuuuuuu3333NNNNhhhh7777++++",
"cccczzzzHHHH####SSSSVVVVtttttttt&&&&uuuuuuuu3333NNNNhhhh7777++++",
"cccczzzzHHHH####SSSSVVVVtttttttt&&&&uuuuuuuu3333NNNNhhhh7777++++",
"1111iiii44445555vvvvaaaatttttttt0000JJJJ$$$$NNNN>>>>wwww4444jjjj",
"1111iiii44445555vvvvaaaatttttttt0000JJJJ$$$$NNNN>>>>wwww4444jjjj",
"1111iiii44445555vvvvaaaatttttttt0000JJJJ$$$$NNNN>>>>wwww4444jjjj",
"1111iiii44445555vvvvaaaatttttttt0000JJJJ$$$$NNNN>>>>wwww4444jjjj"
};
