/* XPM */
static char *_db087bbb5e64a6bc4197a3326d6a00c5WNO5QLIxlvmckwZ[] = {
/* columns rows colors chars-per-pixel */
"33 33 81 1 ",
"  c None",
". c #1F7077",
"X c #1E7B7C",
"o c #386478",
"O c #287C7E",
"+ c #0F847C",
"@ c #0F857D",
"# c #2C7E82",
"$ c #3C7887",
"% c #1F9084",
"& c #149B9F",
"* c #26858F",
"= c #219B8D",
"- c #269D8D",
"; c #2FA99A",
": c #28B09F",
"> c #17A3A0",
", c #16A0A2",
"< c #17AEA6",
"1 c #13ACA8",
"2 c #14B0AA",
"3 c #14B2AB",
"4 c #1FB6AF",
"5 c #1CBBAE",
"6 c #17BCB0",
"7 c #17BDB1",
"8 c #1EBDB4",
"9 c #28B7AC",
"0 c #528F9D",
"q c #469F91",
"w c #5C9194",
"e c #4BA293",
"r c #4F95A0",
"t c #5D90A2",
"y c #549EA4",
"u c #559EA4",
"i c #6287A0",
"p c #6F8AA6",
"a c #74B0B4",
"s c #19C2B4",
"d c #1AC6B6",
"f c #21C0B6",
"g c #25C6BA",
"h c #25C7BD",
"j c #2BCBBA",
"k c #2ED7C5",
"l c #3EDFCF",
"z c #4DD8C8",
"x c #53DCCB",
"c c #7ADFD6",
"v c #42E7D4",
"b c #44EAD7",
"n c #72E7D6",
"m c #64F1DF",
"M c #75F3E2",
"N c #7AF5E2",
"B c #95DEDA",
"V c #82E6D8",
"C c #9CE1DC",
"Z c #90EEDF",
"A c #83F5E4",
"S c #8CF7E5",
"D c #8EF4E8",
"F c #99F3E4",
"G c #99F6E4",
"H c #98F5EA",
"J c #99F7EA",
"K c #A3EAE3",
"L c #AAF7ED",
"P c #AEF7EE",
"I c #A1FAE8",
"U c #A8F8EA",
"Y c #AEFBEC",
"T c #BDF2E9",
"R c #B1F8EE",
"E c #B6FBEE",
"W c #BAFCEF",
"Q c #CBFDF3",
"! c #D3FCF4",
"~ c #EFFEFB",
"^ c #F8FEFD",
/* pixels */
"                                 ",
"                                 ",
"                                 ",
"                                 ",
"                                 ",
"                                 ",
"                                 ",
"                                 ",
"                                 ",
"                                 ",
"                                 ",
"              iuur               ",
"             pCP!T*              ",
"            pBANWUj#             ",
"            aHRQ~Eb:             ",
"           tKLDmYF85X            ",
"           uPHMSIZ,6+            ",
"           u^cnGGl&1+            ",
"           0Vvf333s<.            ",
"            =h6dds4;             ",
"            $,gkxz9w             ",
"             o%-eqO              ",
"                                 ",
"                                 ",
"                                 ",
"                                 ",
"                                 ",
"                                 ",
"                                 ",
"                                 ",
"                                 ",
"                                 ",
"                                 "
};
