/* XPM */
static char *result[] = {
/* columns rows colors chars-per-pixel */
"56 56 76 1 ",
"  c #3D6334",
". c #416838",
"X c #436938",
"o c #436A38",
"O c #446A38",
"+ c #456A3A",
"@ c #456C3A",
"# c #466C3B",
"$ c #466F3C",
"% c #47703C",
"& c #47713C",
"* c #48723C",
"= c #48733D",
"- c #4A743D",
"; c #4A753D",
": c #4B763D",
"> c #4C773E",
", c #0C5E52",
"< c #08737B",
"1 c #4C7840",
"2 c #4C7940",
"3 c #4C7941",
"4 c #4D7A41",
"5 c #4E7B43",
"6 c #4E7C43",
"7 c #4F7D44",
"8 c #507E44",
"9 c #507F45",
"0 c #518046",
"q c #528146",
"w c #528246",
"e c #548346",
"r c #548448",
"t c #548548",
"y c #578649",
"u c #568749",
"i c #56874A",
"p c #58884A",
"a c #58884B",
"s c #59894B",
"d c #59884C",
"f c #5A8B4C",
"g c #5B8C4C",
"h c #5B8D4D",
"j c #5B8E4D",
"k c #5C8F4E",
"l c #5D904E",
"z c #5D914F",
"x c #5E9250",
"c c #5E9350",
"v c #5F9450",
"b c #609550",
"n c #609652",
"m c #619652",
"M c #629754",
"N c #629854",
"B c #639955",
"V c #649A56",
"C c #649B56",
"Z c #659C57",
"A c #669D57",
"S c #69A25A",
"D c #6AA45B",
"F c #6AA55B",
"G c #6CA85D",
"H c #71AE5F",
"J c #70AD60",
"K c #73B062",
"L c #15929B",
"P c #13ACA8",
"I c #1AC6B6",
"U c #28E1D9",
"Y c #48EEDA",
"T c #A2FBE9",
"R c #D6FFF6",
"E c white",
/* pixels */
"uuuKKKKttt2222222qqqq***8888jjjiiii6663333444mmmm   9999",
"uuuKKKKttt2222222qqqq***8888jjjiiii6663333444mmmm   9999",
"uuuKKKKttt2222222qqqq***8888jjjiiii6663333444mmmm   9999",
"uuuKKKKttt2222222qqqq***8888jjjiiii6663333444mmmm   9999",
"uuuu999lllsssssss====ddd;;;;***NNNNnnnttttKKK88883337777",
"uuuu999lllsssssss====ddd;;;;***NNNNnnnttttKKK88883337777",
"uuuu999lllsssssss====ddd;;;;***NNNNnnnttttKKK88883337777",
"cccc999%%%22222224444wwwwwwwwwwkkkknnnZZZZ333oooo===DDDD",
"cccc999%%%22222224444wwwwwwwwwwkkkknnnZZZZ333oooo===DDDD",
"cccc999%%%22222224444wwwwwwwwwwkkkknnnZZZZ333oooo===DDDD",
"XXXX11166622222224444wwwwwwwwwwkkkknnnZZZZ333oooo===DDDD",
"XXXX1116666pppeeedddd%%%rrrr***::::999ppppqqq7777mmm%%%%",
"XXXX1116666pppeeedddd%%%rrrr***::::999ppppqqq7777mmm%%%%",
"XXXX1116666pppeeedddd%%<<<<<<<<<<::999ppppqqq7777mmm%%%%",
"xxxx111ZZZZ:::CCCCCCC44<<<<<<<<<<..===mmmmVVV&&&&4449999",
"xxxx111ZZZZ:::CCCCCCC<<EEEEEEERRR<<===mmmmVVV&&&&4449999",
"xxxx111ZZZZ:::CCCCCCC<<EEEEEEERRR<<===mmmmVVV&&&&4449999",
"dddddddOOOOnnn:::CC<<EEYYYYYTTRRRII,,=mmmmVVV&&&&4449999",
"dddddddOOOOnnn::::i<<EEYYYYYTTRRRII,,4::::OOO4444000yyyy",
"dddddddOOOOnnn::::i<<EEYYYYYTTRRRII,,4::::OOO4444000yyyy",
"dddddddOOOOnnn::<<<EEYYTTTTTRRTTTYYII,,,::OOO4444000yyyy",
"&&&&gggbbbbwwwrr<<<EEYYTTTTTRRTTTYYII,,,CCeeemmmmpppqqqq",
"&&&&gggbbbbwwwrr<<<EEYYEEERREERRRYYYY,,,CCeeemmmmpppqqqq",
"&&&&gggbbbbwwwrr<<<EEYYEEERREERRRYYYY,,,CCeeemmmmpppqqqq",
"qqqq333hhhh777<<EEEYYEEYYYYYTTTTTPPIIPPP,,eeemmmmpppqqqq",
"qqqq333hhhh777<<EEEYYEEYYYYYTTTTTPPIIPPP,,qqqllll***NNNN",
"qqqq333hhhh777<<EEEYYEEYYYYYTTTTTPPIIPPP,,qqqllll***NNNN",
"qqqq333hhhh777<<EEEYYRRYYYTTTTTTTLLIIPPP,,qqqllll***NNNN",
"mmmmfffDDDDBBB<<EEEYYRRYYYTTTTTTTLLIIPPP,,111ttttmmm&&&&",
"mmmmfffDDDDBBB<<EEEEEIITTTTTTTYYYLLPPPPP,,111ttttmmm&&&&",
"mmmmfffDDDDBBB<<EEEEEIITTTTTTTYYYLLPPPPP,,111ttttmmm&&&&",
"pppp;;;FFFF999<<RRRYYYYPPPPPPPPPPIIIILLL,,000SSSSjjj----",
"pppp;;;FFFF999<<RRRYYYYPPPPPPPPPPIIIILLL,,000SSSSjjj----",
"pppp;;;FFFF999<<RRRYYYYPPPPPPPPPPIIIILLL,,000SSSSjjj----",
"pppp;;;FFFF99988,,,YYPPIIIIIIIIIIPPII,,,NN000SSSSjjj----",
"ffffjjjppppbbb;;,,,YYPPIIIIIIIIIIPPII,,,::qqq4444mmmqqqq",
"ffffjjjppppbbb;;,,,UUPPIIIIIIIIIIPPTT,,,::qqq4444mmmqqqq",
"ffffjjjppppbbb;;,,,UUPPIIIIIIIIIIPPTT,,,::qqq4444mmmqqqq",
">>>>ZZZ2222cccpppp>,,LLYYYYYTTTTTII,,8::::qqq4444mmmqqqq",
">>>>ZZZ2222cccpppp>,,LLYYYYYTTTTTII,,88###SSS****%%%6666",
">>>>ZZZ2222cccpppp>,,LLYYYYYTTTTTII,,88###SSS****%%%6666",
">>>>ZZZ2222cccpppp>>>,,,,,,,,,,,,,,8888###SSS****%%%6666",
"GGGGppp----666ddddeee,,,,,,,,,,,,,,6666%%%kkkbbbb+++pppp",
"GGGGppp----666ddddeee1111@@@666eeee6666%%%kkkbbbb+++pppp",
"GGGGppp----666ddddeee1111@@@666eeee6666%%%kkkbbbb+++pppp",
"----MMMXXXXrrr%%%%ddd----KKKzzzttttMMMMffflllbbbb+++pppp",
"----MMMXXXXrrr%%%%ddd----KKKzzzttttMMMMfffllll444MMMAAAA",
"----MMMXXXXrrr%%%%ddd----KKKzzzttttMMMMfffllll444MMMAAAA",
"----MMMXXXXrrr%%%%ddd----KKKzzzttttMMMMfffllll444MMMAAAA",
"cccczzzHHHH###SSSSVVVttttttt&&&uuuuuuuu333NNNNhhh777++++",
"cccczzzHHHH###SSSSVVVttttttt&&&uuuuuuuu333NNNNhhh777++++",
"cccczzzHHHH###SSSSVVVttttttt&&&uuuuuuuu333NNNNhhh777++++",
"1111iii4444555vvvvaaattttttt000JJJJ$$$$NNN>>>>www444++++",
"1111iii4444555vvvvaaattttttt000JJJJ$$$$NNN>>>>www4444jjj",
"1111iii4444555vvvvaaattttttt000JJJJ$$$$NNN>>>>www4444jjj",
"1111iii4444555vvvvaaattttttt000JJJJ$$$$NNN>>>>www4444jjj"
};
