/* XPM */
static char *result[] = {
/* columns rows colors chars-per-pixel */
"31 31 81 1 ",
"  c #1F7077",
". c #1E7B7C",
"X c #386478",
"o c #287C7E",
"O c #0F847C",
"+ c #0F857D",
"@ c #2C7E82",
"# c #3C7887",
"$ c #1F9084",
"% c #149B9F",
"& c #26858F",
"* c #219B8D",
"= c #269D8D",
"- c #2FA99A",
"; c #28B09F",
": c #17A3A0",
"> c #16A0A2",
", c #17AEA6",
"< c #13ACA8",
"1 c #14B0AA",
"2 c #14B2AB",
"3 c #1FB6AF",
"4 c #1CBBAE",
"5 c #17BCB0",
"6 c #17BDB1",
"7 c #1EBDB4",
"8 c #28B7AC",
"9 c #528F9D",
"0 c #469F91",
"q c #5C9194",
"w c #4BA293",
"e c #4F95A0",
"r c #5D90A2",
"t c #549EA4",
"y c #559EA4",
"u c #6287A0",
"i c #6F8AA6",
"p c #74B0B4",
"a c #19C2B4",
"s c #1AC6B6",
"d c #21C0B6",
"f c #25C6BA",
"g c #25C7BD",
"h c #2BCBBA",
"j c #2ED7C5",
"k c #3EDFCF",
"l c #4DD8C8",
"z c #53DCCB",
"x c #7ADFD6",
"c c #42E7D4",
"v c #44EAD7",
"b c #72E7D6",
"n c #64F1DF",
"m c #75F3E2",
"M c #7AF5E2",
"N c #95DEDA",
"B c #82E6D8",
"V c #9CE1DC",
"C c #90EEDF",
"Z c #83F5E4",
"A c #8CF7E5",
"S c #8EF4E8",
"D c #99F3E4",
"F c #99F6E4",
"G c #98F5EA",
"H c #99F7EA",
"J c #A3EAE3",
"K c #AAF7ED",
"L c #AEF7EE",
"P c #A1FAE8",
"I c #A8F8EA",
"U c #AEFBEC",
"Y c #BDF2E9",
"T c #B1F8EE",
"R c #B6FBEE",
"E c #BAFCEF",
"W c #CBFDF3",
"Q c #D3FCF4",
"! c #EFFEFB",
"~ c #F8FEFD",
"^ c None",
/* pixels */
"^^^^^^^^^^^^^^^^^^^^^^^^^^^^^^^",
"^^^^^^^^^^^^^^^^^^^^^^^^^^^^^^^",
"^^^^^^^^^^^^^^^^^^^^^^^^^^^^^^^",
"^^^^^^^^^^^^^^^^^^^^^^^^^^^^^^^",
"^^^^^^^^^^^^^^^^^^^^^^^^^^^^^^^",
"^^^^^^^^^^^^^^^^^^^^^^^^^^^^^^^",
"^^^^^^^^^^^^^^^^^^^^^^^^^^^^^^^",
"^^^^^^^^^^^^^^^^^^^^^^^^^^^^^^^",
"^^^^^^^^^^^^^^^^^^^^^^^^^^^^^^^",
"^^^^^^^^^^^^^^^^^^^^^^^^^^^^^^^",
"^^^^^^^^^^^^^uyye^^^^^^^^^^^^^^",
"^^^^^^^^^^^^iVLQY&^^^^^^^^^^^^^",
"^^^^^^^^^^^iNZMEIh@^^^^^^^^^^^^",
"^^^^^^^^^^^pGTW!Rv;^^^^^^^^^^^^",
"^^^^^^^^^^rJKSnUD74.^^^^^^^^^^^",
"^^^^^^^^^^yLHmAPC>5+^^^^^^^^^^^",
"^^^^^^^^^^t~xbFFk%<O^^^^^^^^^^^",
"^^^^^^^^^^9Bcd112a, ^^^^^^^^^^^",
"^^^^^^^^^^^*g6ssa3-^^^^^^^^^^^^",
"^^^^^^^^^^^#:fjzl8q^^^^^^^^^^^^",
"^^^^^^^^^^^^X$=w0o^^^^^^^^^^^^^",
"^^^^^^^^^^^^^^^^^^^^^^^^^^^^^^^",
"^^^^^^^^^^^^^^^^^^^^^^^^^^^^^^^",
"^^^^^^^^^^^^^^^^^^^^^^^^^^^^^^^",
"^^^^^^^^^^^^^^^^^^^^^^^^^^^^^^^",
"^^^^^^^^^^^^^^^^^^^^^^^^^^^^^^^",
"^^^^^^^^^^^^^^^^^^^^^^^^^^^^^^^",
"^^^^^^^^^^^^^^^^^^^^^^^^^^^^^^^",
"^^^^^^^^^^^^^^^^^^^^^^^^^^^^^^^",
"^^^^^^^^^^^^^^^^^^^^^^^^^^^^^^^",
"^^^^^^^^^^^^^^^^^^^^^^^^^^^^^^^"
};
