/* XPM */
static char *result[] = {
/* columns rows colors chars-per-pixel */
"64 64 66 1 ",
"  c #3D6334",
". c #416838",
"X c #436938",
"o c #436A38",
"O c #446A38",
"+ c #456A3A",
"@ c #456C3A",
"# c #466C3B",
"$ c #466F3C",
"% c #47703C",
"& c #47713C",
"* c #48723C",
"= c #48733D",
"- c #4A743D",
"; c #4A753D",
": c #4B763D",
"> c #4C773E",
", c #4C7840",
"< c #4C7940",
"1 c #4C7941",
"2 c #4D7A41",
"3 c #4E7B43",
"4 c #4E7C43",
"5 c #4F7D44",
"6 c #507E44",
"7 c #507F45",
"8 c #518046",
"9 c #528146",
"0 c #528246",
"q c #548346",
"w c #548448",
"e c #548548",
"r c #578649",
"t c #568749",
"y c #56874A",
"u c #58884A",
"i c #58884B",
"p c #59894B",
"a c #59884C",
"s c #5A8B4C",
"d c #5B8C4C",
"f c #5B8D4D",
"g c #5B8E4D",
"h c #5C8F4E",
"j c #5D904E",
"k c #5D914F",
"l c #5E9250",
"z c #5E9350",
"x c #5F9450",
"c c #609550",
"v c #609652",
"b c #619652",
"n c #629754",
"m c #629854",
"M c #639955",
"N c #649A56",
"B c #649B56",
"V c #659C57",
"C c #669D57",
"Z c #69A25A",
"A c #6AA45B",
"S c #6AA55B",
"D c #6CA85D",
"F c #71AE5F",
"G c #70AD60",
"H c #73B062",
/* pixels */
"ttttHHHHeeee<<<<<<<<9999****6666ggggyyyy444411112222bbbb    7777",
"ttttHHHHeeee<<<<<<<<9999****6666ggggyyyy444411112222bbbb    7777",
"ttttHHHHeeee<<<<<<<<9999****6666ggggyyyy444411112222bbbb    7777",
"ttttHHHHeeee<<<<<<<<9999****6666ggggyyyy444411112222bbbb    7777",
"tttt7777jjjjpppppppp====aaaa;;;;****mmmmvvvveeeeHHHH666611115555",
"tttt7777jjjjpppppppp====aaaa;;;;****mmmmvvvveeeeHHHH666611115555",
"tttt7777jjjjpppppppp====aaaa;;;;****mmmmvvvveeeeHHHH666611115555",
"tttt7777jjjjpppppppp====aaaa;;;;****mmmmvvvveeeeHHHH666611115555",
"zzzz7777%%%%<<<<<<<<2222000000000000hhhhvvvvVVVV1111oooo====AAAA",
"zzzz7777%%%%<<<<<<<<2222000000000000hhhhvvvvVVVV1111oooo====AAAA",
"zzzz7777%%%%<<<<<<<<2222000000000000hhhhvvvvVVVV1111oooo====AAAA",
"zzzz7777%%%%<<<<<<<<2222000000000000hhhhvvvvVVVV1111oooo====AAAA",
"XXXX,,,,4444uuuuqqqqaaaa%%%%wwww****::::7777uuuu99995555bbbb%%%%",
"XXXX,,,,4444uuuuqqqqaaaa%%%%wwww****::::7777uuuu99995555bbbb%%%%",
"XXXX,,,,4444uuuuqqqqaaaa%%%%wwww****::::7777uuuu99995555bbbb%%%%",
"XXXX,,,,4444uuuuqqqqaaaa%%%%wwww****::::7777uuuu99995555bbbb%%%%",
"llll,,,,VVVV::::BBBBBBBB2222BBBBDDDD....====bbbbNNNN&&&&22227777",
"llll,,,,VVVV::::BBBBBBBB2222BBBBDDDD....====bbbbNNNN&&&&22227777",
"llll,,,,VVVV::::BBBBBBBB2222BBBBDDDD....====bbbbNNNN&&&&22227777",
"llll,,,,VVVV::::BBBBBBBB2222BBBBDDDD....====bbbbNNNN&&&&22227777",
"aaaaaaaaOOOOvvvv::::yyyyyyyyssss1111tttt2222::::OOOO22228888rrrr",
"aaaaaaaaOOOOvvvv::::yyyyyyyyssss1111tttt2222::::OOOO22228888rrrr",
"aaaaaaaaOOOOvvvv::::yyyyyyyyssss1111tttt2222::::OOOO22228888rrrr",
"aaaaaaaaOOOOvvvv::::yyyyyyyyssss1111tttt2222::::OOOO22228888rrrr",
"&&&&ddddcccc0000wwww::::4444****>>>>1111AAAABBBBqqqqbbbbuuuu9999",
"&&&&ddddcccc0000wwww::::4444****>>>>1111AAAABBBBqqqqbbbbuuuu9999",
"&&&&ddddcccc0000wwww::::4444****>>>>1111AAAABBBBqqqqbbbbuuuu9999",
"&&&&ddddcccc0000wwww::::4444****>>>>1111AAAABBBBqqqqbbbbuuuu9999",
"99991111ffff55550000$$$$xxxx>>>>uuuuVVVV1111----9999jjjj****mmmm",
"99991111ffff55550000$$$$xxxx>>>>uuuuVVVV1111----9999jjjj****mmmm",
"99991111ffff55550000$$$$xxxx>>>>uuuuVVVV1111----9999jjjj****mmmm",
"99991111ffff55550000$$$$xxxx>>>>uuuuVVVV1111----9999jjjj****mmmm",
"bbbbssssAAAAMMMMBBBB----FFFFddddZZZZMMMM----wwww,,,,eeeebbbb&&&&",
"bbbbssssAAAAMMMMBBBB----FFFFddddZZZZMMMM----wwww,,,,eeeebbbb&&&&",
"bbbbssssAAAAMMMMBBBB----FFFFddddZZZZMMMM----wwww,,,,eeeebbbb&&&&",
"bbbbssssAAAAMMMMBBBB----FFFFddddZZZZMMMM----wwww,,,,eeeebbbb&&&&",
"uuuu;;;;SSSS77776666eeeeFFFF====1111qqqqwwwwmmmm8888ZZZZgggg----",
"uuuu;;;;SSSS77776666eeeeFFFF====1111qqqqwwwwmmmm8888ZZZZgggg----",
"uuuu;;;;SSSS77776666eeeeFFFF====1111qqqqwwwwmmmm8888ZZZZgggg----",
"uuuu;;;;SSSS77776666eeeeFFFF====1111qqqqwwwwmmmm8888ZZZZgggg----",
"ssssgggguuuucccc;;;;AAAA8888eeeeFFFF++++bbbb::::99992222bbbb9999",
"ssssgggguuuucccc;;;;AAAA8888eeeeFFFF++++bbbb::::99992222bbbb9999",
"ssssgggguuuucccc;;;;AAAA8888eeeeFFFF++++bbbb::::99992222bbbb9999",
"ssssgggguuuucccc;;;;AAAA8888eeeeFFFF++++bbbb::::99992222bbbb9999",
">>>>VVVV<<<<zzzzuuuu>>>>wwww3333uuuuwwww6666####ZZZZ****%%%%4444",
">>>>VVVV<<<<zzzzuuuu>>>>wwww3333uuuuwwww6666####ZZZZ****%%%%4444",
">>>>VVVV<<<<zzzzuuuu>>>>wwww3333uuuuwwww6666####ZZZZ****%%%%4444",
">>>>VVVV<<<<zzzzuuuu>>>>wwww3333uuuuwwww6666####ZZZZ****%%%%4444",
"DDDDuuuu----4444aaaaqqqq,,,,@@@@4444qqqq4444%%%%hhhhcccc++++uuuu",
"DDDDuuuu----4444aaaaqqqq,,,,@@@@4444qqqq4444%%%%hhhhcccc++++uuuu",
"DDDDuuuu----4444aaaaqqqq,,,,@@@@4444qqqq4444%%%%hhhhcccc++++uuuu",
"DDDDuuuu----4444aaaaqqqq,,,,@@@@4444qqqq4444%%%%hhhhcccc++++uuuu",
"----nnnnXXXXwwww%%%%aaaa----HHHHkkkkeeeennnnssssjjjj2222nnnnCCCC",
"----nnnnXXXXwwww%%%%aaaa----HHHHkkkkeeeennnnssssjjjj2222nnnnCCCC",
"----nnnnXXXXwwww%%%%aaaa----HHHHkkkkeeeennnnssssjjjj2222nnnnCCCC",
"----nnnnXXXXwwww%%%%aaaa----HHHHkkkkeeeennnnssssjjjj2222nnnnCCCC",
"zzzzkkkkFFFF####ZZZZNNNNeeeeeeee&&&&tttttttt1111mmmmffff5555++++",
"zzzzkkkkFFFF####ZZZZNNNNeeeeeeee&&&&tttttttt1111mmmmffff5555++++",
"zzzzkkkkFFFF####ZZZZNNNNeeeeeeee&&&&tttttttt1111mmmmffff5555++++",
"zzzzkkkkFFFF####ZZZZNNNNeeeeeeee&&&&tttttttt1111mmmmffff5555++++",
",,,,yyyy22223333xxxxiiiieeeeeeee8888GGGG$$$$mmmm>>>>00002222gggg",
",,,,yyyy22223333xxxxiiiieeeeeeee8888GGGG$$$$mmmm>>>>00002222gggg",
",,,,yyyy22223333xxxxiiiieeeeeeee8888GGGG$$$$mmmm>>>>00002222gggg",
",,,,yyyy22223333xxxxiiiieeeeeeee8888GGGG$$$$mmmm>>>>00002222gggg"
};
