/* XPM */
static char *result[] = {
/* columns rows colors chars-per-pixel */
"56 56 66 1 ",
"  c #3D6334",
". c #416838",
"X c #436938",
"o c #436A38",
"O c #446A38",
"+ c #456A3A",
"@ c #456C3A",
"# c #466C3B",
"$ c #466F3C",
"% c #47703C",
"& c #47713C",
"* c #48723C",
"= c #48733D",
"- c #4A743D",
"; c #4A753D",
": c #4B763D",
"> c #4C773E",
", c #4C7840",
"< c #4C7940",
"1 c #4C7941",
"2 c #4D7A41",
"3 c #4E7B43",
"4 c #4E7C43",
"5 c #4F7D44",
"6 c #507E44",
"7 c #507F45",
"8 c #518046",
"9 c #528146",
"0 c #528246",
"q c #548346",
"w c #548448",
"e c #548548",
"r c #578649",
"t c #568749",
"y c #56874A",
"u c #58884A",
"i c #58884B",
"p c #59894B",
"a c #59884C",
"s c #5A8B4C",
"d c #5B8C4C",
"f c #5B8D4D",
"g c #5B8E4D",
"h c #5C8F4E",
"j c #5D904E",
"k c #5D914F",
"l c #5E9250",
"z c #5E9350",
"x c #5F9450",
"c c #609550",
"v c #609652",
"b c #619652",
"n c #629754",
"m c #629854",
"M c #639955",
"N c #649A56",
"B c #649B56",
"V c #659C57",
"C c #669D57",
"Z c #69A25A",
"A c #6AA45B",
"S c #6AA55B",
"D c #6CA85D",
"F c #71AE5F",
"G c #70AD60",
"H c #73B062",
/* pixels */
"tttHHHHeee<<<<<<<9999***6666gggyyyy4441111222bbbb   7777",
"tttHHHHeee<<<<<<<9999***6666gggyyyy4441111222bbbb   7777",
"tttHHHHeee<<<<<<<9999***6666gggyyyy4441111222bbbb   7777",
"tttHHHHeee<<<<<<<9999***6666gggyyyy4441111222bbbb   7777",
"tttt777jjjppppppp====aaa;;;;***mmmmvvveeeeHHH66661115555",
"tttt777jjjppppppp====aaa;;;;***mmmmvvveeeeHHH66661115555",
"tttt777jjjppppppp====aaa;;;;***mmmmvvveeeeHHH66661115555",
"zzzz777%%%<<<<<<<22220000000000hhhhvvvVVVV111oooo===AAAA",
"zzzz777%%%<<<<<<<22220000000000hhhhvvvVVVV111oooo===AAAA",
"zzzz777%%%<<<<<<<22220000000000hhhhvvvVVVV111oooo===AAAA",
"XXXX,,,444<<<<<<<22220000000000hhhhvvvVVVV111oooo===AAAA",
"XXXX,,,4444uuuqqqaaaa%%%wwww***::::777uuuu9995555bbb%%%%",
"XXXX,,,4444uuuqqqaaaa%%%wwww***::::777uuuu9995555bbb%%%%",
"XXXX,,,4444uuuqqqaaaa%%%wwww***::::777uuuu9995555bbb%%%%",
"llll,,,VVVV:::BBBBBBB222BBBBDDD....===bbbbNNN&&&&2227777",
"llll,,,VVVV:::BBBBBBB222BBBBDDD....===bbbbNNN&&&&2227777",
"llll,,,VVVV:::BBBBBBB222BBBBDDD....===bbbbNNN&&&&2227777",
"aaaaaaaOOOOvvv:::BBBB222BBBBDDD....===bbbbNNN&&&&2227777",
"aaaaaaaOOOOvvv::::yyyyyyssss111tttt222::::OOO2222888rrrr",
"aaaaaaaOOOOvvv::::yyyyyyssss111tttt222::::OOO2222888rrrr",
"aaaaaaaOOOOvvv::::yyyyyyssss111tttt222::::OOO2222888rrrr",
"&&&&dddcccc000wwww:::444****>>>1111AAABBBBqqqbbbbuuu9999",
"&&&&dddcccc000wwww:::444****>>>1111AAABBBBqqqbbbbuuu9999",
"&&&&dddcccc000wwww:::444****>>>1111AAABBBBqqqbbbbuuu9999",
"9999111ffff5550000$$$xxx****>>>1111AAABBBBqqqbbbbuuu9999",
"9999111ffff5550000$$$xxxx>>>uuuVVVV111----999jjjj***mmmm",
"9999111ffff5550000$$$xxxx>>>uuuVVVV111----999jjjj***mmmm",
"9999111ffff5550000$$$xxxx>>>uuuVVVV111----999jjjj***mmmm",
"bbbbsssAAAAMMMBBBB---FFFFdddZZZMMMM---wwww,,,eeeebbb&&&&",
"bbbbsssAAAAMMMBBBB---FFFFdddZZZMMMM---wwww,,,eeeebbb&&&&",
"bbbbsssAAAAMMMBBBB---FFFFdddZZZMMMM---wwww,,,eeeebbb&&&&",
"uuuu;;;SSSS7776666eeeFFFF===111qqqqwwwmmmm888ZZZZggg----",
"uuuu;;;SSSS7776666eeeFFFF===111qqqqwwwmmmm888ZZZZggg----",
"uuuu;;;SSSS7776666eeeFFFF===111qqqqwwwmmmm888ZZZZggg----",
"uuuu;;;SSSS7776666eeeFFFF===111qqqqwwwmmmm888ZZZZggg----",
"ssssggguuuuccc;;;;AAA8888eeeFFF++++bbb::::9992222bbb9999",
"ssssggguuuuccc;;;;AAA8888eeeFFF++++bbb::::9992222bbb9999",
"ssssggguuuuccc;;;;AAA8888eeeFFF++++bbb::::9992222bbb9999",
">>>>VVV<<<<zzzuuuu>>>wwww333uuuwwww666::::9992222bbb9999",
">>>>VVV<<<<zzzuuuu>>>wwww333uuuwwww6666###ZZZ****%%%4444",
">>>>VVV<<<<zzzuuuu>>>wwww333uuuwwww6666###ZZZ****%%%4444",
">>>>VVV<<<<zzzuuuu>>>wwww333uuuwwww6666###ZZZ****%%%4444",
"DDDDuuu----444aaaaqqq,,,,@@@444qqqq4444%%%hhhcccc+++uuuu",
"DDDDuuu----444aaaaqqq,,,,@@@444qqqq4444%%%hhhcccc+++uuuu",
"DDDDuuu----444aaaaqqq,,,,@@@444qqqq4444%%%hhhcccc+++uuuu",
"----nnnXXXXwww%%%%aaa----HHHkkkeeeennnnsssjjjcccc+++uuuu",
"----nnnXXXXwww%%%%aaa----HHHkkkeeeennnnsssjjjj222nnnCCCC",
"----nnnXXXXwww%%%%aaa----HHHkkkeeeennnnsssjjjj222nnnCCCC",
"----nnnXXXXwww%%%%aaa----HHHkkkeeeennnnsssjjjj222nnnCCCC",
"zzzzkkkFFFF###ZZZZNNNeeeeeee&&&tttttttt111mmmmfff555++++",
"zzzzkkkFFFF###ZZZZNNNeeeeeee&&&tttttttt111mmmmfff555++++",
"zzzzkkkFFFF###ZZZZNNNeeeeeee&&&tttttttt111mmmmfff555++++",
",,,,yyy2222333xxxxiiieeeeeee888GGGG$$$$mmm>>>>000222++++",
",,,,yyy2222333xxxxiiieeeeeee888GGGG$$$$mmm>>>>0002222ggg",
",,,,yyy2222333xxxxiiieeeeeee888GGGG$$$$mmm>>>>0002222ggg",
",,,,yyy2222333xxxxiiieeeeeee888GGGG$$$$mmm>>>>0002222ggg"
};
