/* XPM */
static char *_1ef65d26f9d4e04b8fb42e36cd6b94epkWfxHqGFpPR59KH[] = {
/* columns rows colors chars-per-pixel */
"33 33 34 1 ",
"  c #3D6334",
". c #436938",
"X c #446A38",
"o c #466C3B",
"O c #466F3C",
"+ c #47703C",
"@ c #48733D",
"# c #4A753D",
"$ c #4C773E",
"% c #4C7840",
"& c #4E7C43",
"* c #4F7D44",
"= c #507F45",
"- c #528146",
"; c #548346",
": c #568749",
"> c #58884A",
", c #59884C",
"< c #5B8D4D",
"1 c #5C8F4E",
"2 c #5D904E",
"3 c #5E9350",
"4 c #5F9450",
"5 c #609550",
"6 c #629754",
"7 c #639955",
"8 c #649B56",
"9 c #659C57",
"0 c #69A25A",
"q c #6AA45B",
"w c #6CA85D",
"e c #71AE5F",
"r c #70AD60",
"t c #73B062",
/* pixels */
":t:%%-@=<:&%%5 =:t:%%-@=<:&%%5 =:",
":=2>>@,#@75:t=%*:=2>>@,#@75:t=%*:",
"3=+%%%---159%.@q3=+%%%---159%.@q3",
".%&>;,+:@#=>-*5+.%&>;,+:@#=>-*5+.",
"3%9#88%8w.@58+%=3%9#88%8w.@58+%=3",
",,X5#::,%:%#X%-:,,X5#::,%:%#X%-:,",
"+<5-:#&@$%q8;5>-+<5-:#&@$%q8;5>-+",
"-%<*-O4$>9%#-2@7-%<*-O4$>9%#-2@7-",
"5,q78#e<07#:%:5+5,q78#e<07#:%:5+5",
">#q==:e@%;:7-0<#>#q==:e@%;:7-0<#>",
",<>5#q-:eX5#-%5-,<>5#q-:eX5#-%5-,",
"$9%3>$:%>:=o0@+&$9%3>$:%>:=o0@+&$",
"w>#&,;%o&;&+15X>w>#&,;%o&;&+15X>w",
"#6.:+,#t2:6,2%69#6.:+,#t2:6,2%69#",
"32eo08::+::%7<*X32eo08::+::%7<*X3",
"%:%%4>::-rO7$-%<%:%%4>::-rO7$-%<%",
":t:%%-@=<:&%%5 =:t:%%-@=<:&%%5 =:",
":=2>>@,#@75:t=%*:=2>>@,#@75:t=%*:",
"3=+%%%---159%.@q3=+%%%---159%.@q3",
".%&>;,+:@#=>-*5+.%&>;,+:@#=>-*5+.",
"3%9#88%8w.@58+%=3%9#88%8w.@58+%=3",
",,X5#::,%:%#X%-:,,X5#::,%:%#X%-:,",
"+<5-:#&@$%q8;5>-+<5-:#&@$%q8;5>-+",
"-%<*-O4$>9%#-2@7-%<*-O4$>9%#-2@7-",
"5,q78#e<07#:%:5+5,q78#e<07#:%:5+5",
">#q==:e@%;:7-0<#>#q==:e@%;:7-0<#>",
",<>5#q-:eX5#-%5-,<>5#q-:eX5#-%5-,",
"$9%3>$:%>:=o0@+&$9%3>$:%>:=o0@+&$",
"w>#&,;%o&;&+15X>w>#&,;%o&;&+15X>w",
"#6.:+,#t2:6,2%69#6.:+,#t2:6,2%69#",
"32eo08::+::%7<*X32eo08::+::%7<*X3",
"%:%%4>::-rO7$-%<%:%%4>::-rO7$-%<%",
":t:%%-@=<:&%%5 =:t:%%-@=<:&%%5 =:"
};
