/* XPM */
static char *f523395f952e4b30d3003cb3b8e1e19eKQkR0UWaM3jYK20d[] = {
/* columns rows colors chars-per-pixel */
"33 33 22 1 ",
"  c None",
". c #2F160F",
"X c #3C1F16",
"o c #292C2F",
"O c #352D3E",
"+ c #6B2119",
"@ c #522C20",
"# c #653729",
"$ c #794333",
"% c #4F3F5C",
"& c #28757E",
"* c #44484E",
"= c #644D77",
"- c #5A6169",
"; c #AB543D",
": c #E88661",
"> c #815A90",
", c #3B8B98",
"< c #4CA8B3",
"1 c #FFBD8B",
"2 c gray81",
"3 c white",
/* pixels */
"                                 ",
"                                 ",
"          XX@@@@@@@@@XX          ",
"          @#$$######$#@          ",
"          @$$#@##$$###@          ",
"          @#@######@#$@          ",
"          X###$$######X          ",
"          X@##########X          ",
"          X@@@@@@@@@@@X          ",
"          @@##@@@@@@#@X          ",
"          +@@@@@@#@@@@X          ",
"          =2@:1;@@@@@@.          ",
"          >3;11;@@##@@X          ",
"          +::1:::;;@@@X          ",
"          +;::::11::;;+          ",
"          +;;;:::::;;;+          ",
"              <<<<<              ",
"              ,<<<,              ",
"              &,,,&              ",
"              &,,,&              ",
"              &,,,&              ",
"              +:::+              ",
"              +11:+              ",
"              +:11+              ",
"              +++++              ",
"              %=%=O              ",
"              O===O              ",
"              O*-*o              ",
"              *-**o              ",
"              ooooo              ",
"                                 ",
"                                 ",
"                                 "
};
