/* XPM */
static char *result[] = {
/* columns rows colors chars-per-pixel */
"64 64 85 1 ",
"  c #2F160F",
". c #3C1F16",
"X c #292C2F",
"o c #352D3E",
"O c #6B2119",
"+ c #522C20",
"@ c #653729",
"# c #3D6334",
"$ c #794333",
"% c #436938",
"& c #436A38",
"* c #446A38",
"= c #456A3A",
"- c #466C3B",
"; c #466F3C",
": c #47703C",
"> c #47713C",
", c #48723C",
"< c #48733D",
"1 c #4A743D",
"2 c #4A753D",
"3 c #4B763D",
"4 c #4C773E",
"5 c #4F3F5C",
"6 c #28757E",
"7 c #44484E",
"8 c #4C7840",
"9 c #4C7940",
"0 c #4C7941",
"q c #4D7A41",
"w c #4E7B43",
"e c #4E7C43",
"r c #4F7D44",
"t c #507E44",
"y c #507F45",
"u c #644D77",
"i c #5A6169",
"p c #AB543D",
"a c #518046",
"s c #528146",
"d c #528246",
"f c #548346",
"g c #548448",
"h c #548548",
"j c #578649",
"k c #568749",
"l c #56874A",
"z c #58884A",
"x c #58884B",
"c c #59894B",
"v c #59884C",
"b c #5A8B4C",
"n c #5B8C4C",
"m c #5B8D4D",
"M c #5B8E4D",
"N c #5C8F4E",
"B c #5D904E",
"V c #5D914F",
"C c #5E9250",
"Z c #5E9350",
"A c #5F9450",
"S c #609550",
"D c #609652",
"F c #619652",
"G c #629754",
"H c #629854",
"J c #639955",
"K c #649A56",
"L c #649B56",
"P c #659C57",
"I c #669D57",
"U c #69A25A",
"Y c #6AA45B",
"T c #6AA55B",
"R c #6CA85D",
"E c #71AE5F",
"W c #70AD60",
"Q c #73B062",
"! c #E88661",
"~ c #815A90",
"^ c #3B8B98",
"/ c #4CA8B3",
"( c #FFBD8B",
") c gray81",
"_ c white",
/* pixels */
"kkkkQQQQhhhh99999999ssss,,,,ttttMMMMlllleeee0000qqqqFFFF####yyyy",
"kkkkQQQQhhhh99999999ssss,,,,ttttMMMMlllleeee0000qqqqFFFF####yyyy",
"kkkkQQQQhhhh99999999ssss,,,,ttttMMMMlllleeee0000qqqqFFFF####yyyy",
"kkkkQQQQhhhh99999999ssss,,,,ttttMMMMlllleeee0000qqqqFFFF####yyyy",
"kkkkyyyyBBBBcccccc....++++++++++++++++++....hhhhQQQQtttt0000rrrr",
"kkkkyyyyBBBBcccccc....++++++++++++++++++....hhhhQQQQtttt0000rrrr",
"kkkkyyyyBBBBcccccc++@@$$@@@@@@@@@@@@$$$$@@++hhhhQQQQtttt0000rrrr",
"kkkkyyyyBBBBcccccc++@@$$@@@@@@@@@@@@$$$$@@++hhhhQQQQtttt0000rrrr",
"ZZZZyyyy::::999999++@@@@@@$$$$@@@@++@@$$$$++PPPP0000&&&&<<<<YYYY",
"ZZZZyyyy::::999999++@@@@@@$$$$@@@@++@@$$$$++PPPP0000&&&&<<<<YYYY",
"ZZZZyyyy::::999999++$$@@++@@@@@@@@@@@@++@@++PPPP0000&&&&<<<<YYYY",
"ZZZZyyyy::::999999++$$@@++@@@@@@@@@@@@++@@++PPPP0000&&&&<<<<YYYY",
"%%%%8888eeeezzzzff..@@@@@@@@@@@@$$$$@@@@@@..zzzzssssrrrrFFFF::::",
"%%%%8888eeeezzzzff..@@@@@@@@@@@@$$$$@@@@@@..zzzzssssrrrrFFFF::::",
"%%%%8888eeeezzzzff..@@@@@@@@@@@@@@@@@@@@++..zzzzssssrrrrFFFF::::",
"%%%%8888eeeezzzzff..@@@@@@@@@@@@@@@@@@@@++..zzzzssssrrrrFFFF::::",
"CCCC8888PPPP3333LL..++++++++++++++++++++++..FFFFKKKK>>>>qqqqyyyy",
"CCCC8888PPPP3333LL..++++++++++++++++++++++..FFFFKKKK>>>>qqqqyyyy",
"CCCC8888PPPP3333LL..++@@++++++++++++@@@@++++FFFFKKKK>>>>qqqqyyyy",
"CCCC8888PPPP3333LL..++@@++++++++++++@@@@++++FFFFKKKK>>>>qqqqyyyy",
"vvvvvvvv****DDDD33..++++++++@@++++++++++++OO3333****qqqqaaaajjjj",
"vvvvvvvv****DDDD33..++++++++@@++++++++++++OO3333****qqqqaaaajjjj",
"vvvvvvvv****DDDD33  ++++++++++++pp((!!++))uu3333****qqqqaaaajjjj",
"vvvvvvvv****DDDD33  ++++++++++++pp((!!++))uu3333****qqqqaaaajjjj",
">>>>nnnnSSSSddddgg..++++@@@@++++pp((((pp__~~LLLLffffFFFFzzzzssss",
">>>>nnnnSSSSddddgg..++++@@@@++++pp((((pp__~~LLLLffffFFFFzzzzssss",
">>>>nnnnSSSSddddgg..++++++pppp!!!!!!((!!!!OOLLLLffffFFFFzzzzssss",
">>>>nnnnSSSSddddgg..++++++pppp!!!!!!((!!!!OOLLLLffffFFFFzzzzssss",
"ssss0000mmmmrrrrddOOpppp!!!!((((!!!!!!!!ppOO1111ssssBBBB,,,,HHHH",
"ssss0000mmmmrrrrddOOpppp!!!!((((!!!!!!!!ppOO1111ssssBBBB,,,,HHHH",
"ssss0000mmmmrrrrddOOpppppp!!!!!!!!!!ppppppOO1111ssssBBBB,,,,HHHH",
"ssss0000mmmmrrrrddOOpppppp!!!!!!!!!!ppppppOO1111ssssBBBB,,,,HHHH",
"FFFFbbbbYYYYJJJJLLLL1111EE//////////JJJJ1111gggg8888hhhhFFFF>>>>",
"FFFFbbbbYYYYJJJJLLLL1111EE//////////JJJJ1111gggg8888hhhhFFFF>>>>",
"FFFFbbbbYYYYJJJJLLLL1111EE^^//////^^JJJJ1111gggg8888hhhhFFFF>>>>",
"FFFFbbbbYYYYJJJJLLLL1111EE^^//////^^JJJJ1111gggg8888hhhhFFFF>>>>",
"zzzz2222TTTTyyyytttthhhhEE66^^^^^^66ffffggggHHHHaaaaUUUUMMMM1111",
"zzzz2222TTTTyyyytttthhhhEE66^^^^^^66ffffggggHHHHaaaaUUUUMMMM1111",
"zzzz2222TTTTyyyytttthhhhEE66^^^^^^66ffffggggHHHHaaaaUUUUMMMM1111",
"zzzz2222TTTTyyyytttthhhhEE66^^^^^^66ffffggggHHHHaaaaUUUUMMMM1111",
"bbbbMMMMzzzzSSSS2222YYYYaa66^^^^^^66====FFFF3333ssssqqqqFFFFssss",
"bbbbMMMMzzzzSSSS2222YYYYaa66^^^^^^66====FFFF3333ssssqqqqFFFFssss",
"bbbbMMMMzzzzSSSS2222YYYYaaOO!!!!!!OO====FFFF3333ssssqqqqFFFFssss",
"bbbbMMMMzzzzSSSS2222YYYYaaOO!!!!!!OO====FFFF3333ssssqqqqFFFFssss",
"4444PPPP9999ZZZZzzzz4444ggOO!!((((OOggggtttt----UUUU,,,,::::eeee",
"4444PPPP9999ZZZZzzzz4444ggOO!!((((OOggggtttt----UUUU,,,,::::eeee",
"4444PPPP9999ZZZZzzzz4444ggOO((((!!OOggggtttt----UUUU,,,,::::eeee",
"4444PPPP9999ZZZZzzzz4444ggOO((((!!OOggggtttt----UUUU,,,,::::eeee",
"RRRRzzzz1111eeeevvvvffff88OOOOOOOOOOffffeeee::::NNNNSSSS====zzzz",
"RRRRzzzz1111eeeevvvvffff88OOOOOOOOOOffffeeee::::NNNNSSSS====zzzz",
"RRRRzzzz1111eeeevvvvffff88oouu55uu55ffffeeee::::NNNNSSSS====zzzz",
"RRRRzzzz1111eeeevvvvffff88oouu55uu55ffffeeee::::NNNNSSSS====zzzz",
"1111GGGG%%%%gggg::::vvvv11oouuuuuuoohhhhGGGGbbbbBBBBqqqqGGGGIIII",
"1111GGGG%%%%gggg::::vvvv11oouuuuuuoohhhhGGGGbbbbBBBBqqqqGGGGIIII",
"1111GGGG%%%%gggg::::vvvv11XX77ii77oohhhhGGGGbbbbBBBBqqqqGGGGIIII",
"1111GGGG%%%%gggg::::vvvv11XX77ii77oohhhhGGGGbbbbBBBBqqqqGGGGIIII",
"ZZZZVVVVEEEE----UUUUKKKKhhXX7777ii77kkkkkkkk0000HHHHmmmmrrrr====",
"ZZZZVVVVEEEE----UUUUKKKKhhXX7777ii77kkkkkkkk0000HHHHmmmmrrrr====",
"ZZZZVVVVEEEE----UUUUKKKKhhXXXXXXXXXXkkkkkkkk0000HHHHmmmmrrrr====",
"ZZZZVVVVEEEE----UUUUKKKKhhXXXXXXXXXXkkkkkkkk0000HHHHmmmmrrrr====",
"8888llllqqqqwwwwAAAAxxxxhhhhhhhhaaaaWWWW;;;;HHHH4444ddddqqqqMMMM",
"8888llllqqqqwwwwAAAAxxxxhhhhhhhhaaaaWWWW;;;;HHHH4444ddddqqqqMMMM",
"8888llllqqqqwwwwAAAAxxxxhhhhhhhhaaaaWWWW;;;;HHHH4444ddddqqqqMMMM",
"8888llllqqqqwwwwAAAAxxxxhhhhhhhhaaaaWWWW;;;;HHHH4444ddddqqqqMMMM"
};
