/* XPM */
static char *result[] = {
/* columns rows colors chars-per-pixel */
"31 31 18 1 ",
"  c #2F160F",
". c #3C1F16",
"X c #292C2F",
"o c #352D3E",
"O c #6B2119",
"+ c #522C20",
"@ c #653729",
"# c #794333",
"$ c #4F3F5C",
"% c #28757E",
"& c #44484E",
"* c #644D77",
"= c #AB543D",
"- c #E88661",
"; c #3B8B98",
": c #4CA8B3",
"> c #FFBD8B",
", c None",
/* pixels */
",,,,,,,,,,,,,,,,,,,,,,,,,,,,,,,",
",,,,,,,,,..+++++++++..,,,,,,,,,",
",,,,,,,,,+@##@@@@@@#@+,,,,,,,,,",
",,,,,,,,,+##@+@@##@@@+,,,,,,,,,",
",,,,,,,,,+@+@@@@@@+@#+,,,,,,,,,",
",,,,,,,,,.@@@##@@@@@@.,,,,,,,,,",
",,,,,,,,,.+++++++++++.,,,,,,,,,",
",,,,,,,,,.++++@@+++++.,,,,,,,,,",
",,,,,,,,,.+@+++++++++.,,,,,,,,,",
",,,,,,,,, ++++++++@++ ,,,,,,,,,",
",,,,,,,,,.+++@@++++++.,,,,,,,,,",
",,,,,,,,, ..+++++++.. ,,,,,,,,,",
",,,,,,,,, .....+....+ ,,,,,,,,,",
",,,,,,,,,  +........  ,,,,,,,,,",
",,,,,,,,,O==  ...  ==O,,,,,,,,,",
",,,,,,,,,;::%;;;;;%::;,,,,,,,,,",
",,,,,,,,,%;;%:::;:%;;%,,,,,,,,,",
",,,,,,,,,%;;%:;:;:%;;%,,,,,,,,,",
",,,,,,,,,%;;%:;:;:%;;%,,,,,,,,,",
",,,,,,,,,O--%;;:;;%--O,,,,,,,,,",
",,,,,,,,,O>>%;:::;%>>O,,,,,,,,,",
",,,,,,,,,O->o*$;;$o>-O,,,,,,,,,",
",,,,,,,,,OOOo$$$$$oOOO,,,,,,,,,",
",,,,,,,,,,,,o**$**o,,,,,,,,,,,,",
",,,,,,,,,,,,o$$o$$o,,,,,,,,,,,,",
",,,,,,,,,,,,o**o**o,,,,,,,,,,,,",
",,,,,,,,,,,,XooXooX,,,,,,,,,,,,",
",,,,,,,,,,,,X&&X&&X,,,,,,,,,,,,",
",,,,,,,,,,,,XXXXXXX,,,,,,,,,,,,",
",,,,,,,,,,,,,,,,,,,,,,,,,,,,,,,",
",,,,,,,,,,,,,,,,,,,,,,,,,,,,,,,"
};
