/* XPM */
static char *result[] = {
/* columns rows colors chars-per-pixel */
"31 31 22 1 ",
"  c #2F160F",
". c #3C1F16",
"X c #292C2F",
"o c #352D3E",
"O c #6B2119",
"+ c #522C20",
"@ c #653729",
"# c #794333",
"$ c #4F3F5C",
"% c #28757E",
"& c #44484E",
"* c #644D77",
"= c #5A6169",
"- c #AB543D",
"; c #E88661",
": c #815A90",
"> c #3B8B98",
", c #4CA8B3",
"< c #FFBD8B",
"1 c gray81",
"2 c white",
"3 c None",
/* pixels */
"3333333333333333333333333333333",
"333333333..+++++++++..333333333",
"333333333+@#@@@@@@##@+333333333",
"333333333+@@@##@@+@##+333333333",
"333333333+#@+@@@@@@+@+333333333",
"333333333.@@@@@@##@@@.333333333",
"333333333.+++++++++++.333333333",
"333333333.@++++++++@+.333333333",
"333333333.+++@@++++++.333333333",
"333333333 ++-------++ 333333333",
"333333333.+1**;;;**1+.333333333",
"333333333O-2::<<<::2-O333333333",
"333333333O;<<<;;;<<<;O333333333",
"333333333O-;;-OOO-;;-O333333333",
"333333333O---;;;;;---O333333333",
"333333333>,,%>OOO>%,,>333333333",
"333333333%>>%,>->,%>>%333333333",
"333333333%>>%,>,>,%>>%333333333",
"333333333%>>%>>,>,%>>%333333333",
"333333333O;;%>,,>,%;;O333333333",
"333333333O<<%,,,>,%<<O333333333",
"333333333O<;o,,>$*o;<O333333333",
"333333333OOOo,$$$$oOOO333333333",
"333333333333o**$**o333333333333",
"333333333333$**o**$333333333333",
"333333333333$*$o$*$333333333333",
"333333333333o**o**o333333333333",
"333333333333&=&X&=&333333333333",
"333333333333XXXXXXX333333333333",
"3333333333333333333333333333333",
"3333333333333333333333333333333"
};
