/* XPM */
static char *result[] = {
/* columns rows colors chars-per-pixel */
"56 56 81 1 ",
"  c #2F160F",
". c #3C1F16",
"X c #292C2F",
"o c #352D3E",
"O c #6B2119",
"+ c #522C20",
"@ c #653729",
"# c #3D6334",
"$ c #794333",
"% c #436938",
"& c #436A38",
"* c #446A38",
"= c #456A3A",
"- c #466C3B",
"; c #466F3C",
": c #47703C",
"> c #47713C",
", c #48723C",
"< c #48733D",
"1 c #4A743D",
"2 c #4A753D",
"3 c #4B763D",
"4 c #4C773E",
"5 c #4F3F5C",
"6 c #28757E",
"7 c #44484E",
"8 c #4C7840",
"9 c #4C7940",
"0 c #4C7941",
"q c #4D7A41",
"w c #4E7B43",
"e c #4E7C43",
"r c #4F7D44",
"t c #507E44",
"y c #507F45",
"u c #644D77",
"i c #AB543D",
"p c #518046",
"a c #528146",
"s c #528246",
"d c #548346",
"f c #548448",
"g c #548548",
"h c #578649",
"j c #568749",
"k c #56874A",
"l c #58884A",
"z c #58884B",
"x c #59894B",
"c c #59884C",
"v c #5A8B4C",
"b c #5B8C4C",
"n c #5B8D4D",
"m c #5B8E4D",
"M c #5C8F4E",
"N c #5D904E",
"B c #5D914F",
"V c #5E9250",
"C c #5E9350",
"Z c #5F9450",
"A c #609550",
"S c #609652",
"D c #619652",
"F c #629754",
"G c #629854",
"H c #639955",
"J c #649A56",
"K c #649B56",
"L c #659C57",
"P c #669D57",
"I c #69A25A",
"U c #6AA45B",
"Y c #6AA55B",
"T c #6CA85D",
"R c #71AE5F",
"E c #70AD60",
"W c #73B062",
"Q c #E88661",
"! c #3B8B98",
"~ c #4CA8B3",
"^ c #FFBD8B",
/* pixels */
"jjjWWWWggg9999999aaaa,,,ttttmmmkkkkeee0000qqqDDDD###yyyy",
"jjjWWWWggg9999999aaaa,,,ttttmmmkkkkeee0000qqqDDDD###yyyy",
"jjjWWWWggg999999....++++++++++++++++....00qqqDDDD###yyyy",
"jjjWWWWggg999999....++++++++++++++++....00qqqDDDD###yyyy",
"jjjjyyyNNNxxxxxx++@@$$$@@@@@@@@@@@@$@@++ggWWWtttt000rrrr",
"jjjjyyyNNNxxxxxx++@@$$$@@@@@@@@@@@@$@@++ggWWWtttt000rrrr",
"jjjjyyyNNNxxxxxx++$$$$@++@@@@$$$$@@@@@++ggWWWtttt000rrrr",
"CCCCyyy:::999999++@@++@@@@@@@@@@@++@$$++LL000&&&&<<<UUUU",
"CCCCyyy:::999999++@@++@@@@@@@@@@@++@$$++LL000&&&&<<<UUUU",
"CCCCyyy:::999999..@@@@@$$$$@@@@@@@@@@@..LL000&&&&<<<UUUU",
"%%%%888eee999999..@@@@@$$$$@@@@@@@@@@@..LL000&&&&<<<UUUU",
"%%%%888eeeellldd..++++++++++++++++++++..llaaarrrrDDD::::",
"%%%%888eeeellldd..++++++++++++++++++++..llaaarrrrDDD::::",
"%%%%888eeeellldd..+++++++@@@@+++++++++..llaaarrrrDDD::::",
"VVVV888LLLL333KK..+++++++@@@@+++++++++..DDJJJ>>>>qqqyyyy",
"VVVV888LLLL333KK..++@@++++++++++++++++..DDJJJ>>>>qqqyyyy",
"VVVV888LLLL333KK..++@@++++++++++++++++..DDJJJ>>>>qqqyyyy",
"ccccccc****SSS33  +++++++++++++++@@+++  DDJJJ>>>>qqqyyyy",
"ccccccc****SSS33  +++++++++++++++@@+++  33***qqqqppphhhh",
"ccccccc****SSS33..+++++@@@@+++++++++++..33***qqqqppphhhh",
"ccccccc****SSS33..+++++@@@@+++++++++++..33***qqqqppphhhh",
">>>>bbbAAAAsssff  ....+++++++++++++...  KKdddDDDDlllaaaa",
">>>>bbbAAAAsssff  .........++.......++  KKdddDDDDlllaaaa",
">>>>bbbAAAAsssff  .........++.......++  KKdddDDDDlllaaaa",
"aaaa000nnnnrrrss    ++..............    KKdddDDDDlllaaaa",
"aaaa000nnnnrrrss    ++..............    11aaaNNNN,,,GGGG",
"aaaa000nnnnrrrssOOiiii   ......    iiiOO11aaaNNNN,,,GGGG",
"aaaa000nnnnrrrssOOiiii   ......    iiiOO11aaaNNNN,,,GGGG",
"DDDDvvvUUUUHHHKK!!~~~~6!!!!!!!!!!66~~~!!ff888ggggDDD>>>>",
"DDDDvvvUUUUHHHKK!!~~~~6!!!!!!!!!!66~~~!!ff888ggggDDD>>>>",
"DDDDvvvUUUUHHHKK66!!!!6~~~~~~!!~~66!!!66ff888ggggDDD>>>>",
"llll222YYYYyyytt66!!!!6~~~~~~!!~~66!!!66GGpppIIIImmm1111",
"llll222YYYYyyytt66!!!!6~~!!~~!!~~66!!!66GGpppIIIImmm1111",
"llll222YYYYyyytt66!!!!6~~!!~~!!~~66!!!66GGpppIIIImmm1111",
"llll222YYYYyyytt66!!!!6~~!!~~!!~~66!!!66GGpppIIIImmm1111",
"vvvvmmmllllAAA22OOQQQQ6!!!!~~!!!!66QQQOO33aaaqqqqDDDaaaa",
"vvvvmmmllllAAA22OOQQQQ6!!!!~~!!!!66QQQOO33aaaqqqqDDDaaaa",
"vvvvmmmllllAAA22OO^^^^6!!~~~~~~!!66^^^OO33aaaqqqqDDDaaaa",
"4444LLL9999CCCllOO^^^^6!!~~~~~~!!66^^^OO33aaaqqqqDDDaaaa",
"4444LLL9999CCCllOOQQ^^ouu55!!!!55oo^QQOO--III,,,,:::eeee",
"4444LLL9999CCCllOOQQ^^ouu55!!!!55oo^QQOO--III,,,,:::eeee",
"4444LLL9999CCCllOOOOOOo5555555555ooOOOOO--III,,,,:::eeee",
"TTTTlll1111eeeccOOOOOOo5555555555ooOOOOO::MMMAAAA===llll",
"TTTTlll1111eeeccccddd8ouuuu55uuuuooeeee:::MMMAAAA===llll",
"TTTTlll1111eeeccccddd8ouuuu55uuuuooeeee:::MMMAAAA===llll",
"1111FFF%%%%fff::::ccc1o5555oo5555ooFFFFvvvNNNAAAA===llll",
"1111FFF%%%%fff::::ccc1o5555oo5555ooFFFFvvvNNNNqqqFFFPPPP",
"1111FFF%%%%fff::::ccc1ouuuuoouuuuooFFFFvvvNNNNqqqFFFPPPP",
"1111FFF%%%%fff::::ccc1ouuuuoouuuuooFFFFvvvNNNNqqqFFFPPPP",
"CCCCBBBRRRR---IIIIJJJgXooooXXooooXXjjjj000GGGGnnnrrr====",
"CCCCBBBRRRR---IIIIJJJgX7777XX7777XXjjjj000GGGGnnnrrr====",
"CCCCBBBRRRR---IIIIJJJgX7777XX7777XXjjjj000GGGGnnnrrr====",
"8888kkkqqqqwwwZZZZzzzgXXXXXXXXXXXXX;;;;GGG4444sssqqq====",
"8888kkkqqqqwwwZZZZzzzgXXXXXXXXXXXXX;;;;GGG4444sssqqqqmmm",
"8888kkkqqqqwwwZZZZzzzgggggggpppEEEE;;;;GGG4444sssqqqqmmm",
"8888kkkqqqqwwwZZZZzzzgggggggpppEEEE;;;;GGG4444sssqqqqmmm"
};
