/* XPM */
static char *result[] = {
/* columns rows colors chars-per-pixel */
"64 64 81 1 ",
"  c #2F160F",
". c #3C1F16",
"X c #292C2F",
"o c #352D3E",
"O c #6B2119",
"+ c #522C20",
"@ c #653729",
"# c #3D6334",
"$ c #794333",
"% c #436938",
"& c #436A38",
"* c #446A38",
"= c #456A3A",
"- c #466C3B",
"; c #466F3C",
": c #47703C",
"> c #47713C",
", c #48723C",
"< c #48733D",
"1 c #4A743D",
"2 c #4A753D",
"3 c #4B763D",
"4 c #4C773E",
"5 c #4F3F5C",
"6 c #28757E",
"7 c #44484E",
"8 c #4C7840",
"9 c #4C7940",
"0 c #4C7941",
"q c #4D7A41",
"w c #4E7B43",
"e c #4E7C43",
"r c #4F7D44",
"t c #507E44",
"y c #507F45",
"u c #644D77",
"i c #AB543D",
"p c #518046",
"a c #528146",
"s c #528246",
"d c #548346",
"f c #548448",
"g c #548548",
"h c #578649",
"j c #568749",
"k c #56874A",
"l c #58884A",
"z c #58884B",
"x c #59894B",
"c c #59884C",
"v c #5A8B4C",
"b c #5B8C4C",
"n c #5B8D4D",
"m c #5B8E4D",
"M c #5C8F4E",
"N c #5D904E",
"B c #5D914F",
"V c #5E9250",
"C c #5E9350",
"Z c #5F9450",
"A c #609550",
"S c #609652",
"D c #619652",
"F c #629754",
"G c #629854",
"H c #639955",
"J c #649A56",
"K c #649B56",
"L c #659C57",
"P c #669D57",
"I c #69A25A",
"U c #6AA45B",
"Y c #6AA55B",
"T c #6CA85D",
"R c #71AE5F",
"E c #70AD60",
"W c #73B062",
"Q c #E88661",
"! c #3B8B98",
"~ c #4CA8B3",
"^ c #FFBD8B",
/* pixels */
"jjjjWWWWgggg99999999aaaa,,,,ttttmmmmkkkkeeee0000qqqqDDDD####yyyy",
"jjjjWWWWgggg99999999aaaa,,,,ttttmmmmkkkkeeee0000qqqqDDDD####yyyy",
"jjjjWWWWgggg99999999aaaa,,,,ttttmmmmkkkkeeee0000qqqqDDDD####yyyy",
"jjjjWWWWgggg99999999aaaa,,,,ttttmmmmkkkkeeee0000qqqqDDDD####yyyy",
"jjjjyyyyNNNNxxxxxx....++++++++++++++++++....ggggWWWWtttt0000rrrr",
"jjjjyyyyNNNNxxxxxx....++++++++++++++++++....ggggWWWWtttt0000rrrr",
"jjjjyyyyNNNNxxxxxx++@@$$$$@@@@@@@@@@@@$$@@++ggggWWWWtttt0000rrrr",
"jjjjyyyyNNNNxxxxxx++@@$$$$@@@@@@@@@@@@$$@@++ggggWWWWtttt0000rrrr",
"CCCCyyyy::::999999++$$$$@@++@@@@$$$$@@@@@@++LLLL0000&&&&<<<<UUUU",
"CCCCyyyy::::999999++$$$$@@++@@@@$$$$@@@@@@++LLLL0000&&&&<<<<UUUU",
"CCCCyyyy::::999999++@@++@@@@@@@@@@@@++@@$$++LLLL0000&&&&<<<<UUUU",
"CCCCyyyy::::999999++@@++@@@@@@@@@@@@++@@$$++LLLL0000&&&&<<<<UUUU",
"%%%%8888eeeelllldd..@@@@@@$$$$@@@@@@@@@@@@..llllaaaarrrrDDDD::::",
"%%%%8888eeeelllldd..@@@@@@$$$$@@@@@@@@@@@@..llllaaaarrrrDDDD::::",
"%%%%8888eeeelllldd..++++++++++++++++++++++..llllaaaarrrrDDDD::::",
"%%%%8888eeeelllldd..++++++++++++++++++++++..llllaaaarrrrDDDD::::",
"VVVV8888LLLL3333KK..++++++++@@@@++++++++++..DDDDJJJJ>>>>qqqqyyyy",
"VVVV8888LLLL3333KK..++++++++@@@@++++++++++..DDDDJJJJ>>>>qqqqyyyy",
"VVVV8888LLLL3333KK..++@@++++++++++++++++++..DDDDJJJJ>>>>qqqqyyyy",
"VVVV8888LLLL3333KK..++@@++++++++++++++++++..DDDDJJJJ>>>>qqqqyyyy",
"cccccccc****SSSS33  ++++++++++++++++@@++++  3333****qqqqpppphhhh",
"cccccccc****SSSS33  ++++++++++++++++@@++++  3333****qqqqpppphhhh",
"cccccccc****SSSS33..++++++@@@@++++++++++++..3333****qqqqpppphhhh",
"cccccccc****SSSS33..++++++@@@@++++++++++++..3333****qqqqpppphhhh",
">>>>bbbbAAAAssssff  ....++++++++++++++....  KKKKddddDDDDllllaaaa",
">>>>bbbbAAAAssssff  ....++++++++++++++....  KKKKddddDDDDllllaaaa",
">>>>bbbbAAAAssssff  ..........++........++  KKKKddddDDDDllllaaaa",
">>>>bbbbAAAAssssff  ..........++........++  KKKKddddDDDDllllaaaa",
"aaaa0000nnnnrrrrss    ++................    1111aaaaNNNN,,,,GGGG",
"aaaa0000nnnnrrrrss    ++................    1111aaaaNNNN,,,,GGGG",
"aaaa0000nnnnrrrrssOOiiii    ......    iiiiOO1111aaaaNNNN,,,,GGGG",
"aaaa0000nnnnrrrrssOOiiii    ......    iiiiOO1111aaaaNNNN,,,,GGGG",
"DDDDvvvvUUUUHHHHKK!!~~~~66!!!!!!!!!!66~~~~!!ffff8888ggggDDDD>>>>",
"DDDDvvvvUUUUHHHHKK!!~~~~66!!!!!!!!!!66~~~~!!ffff8888ggggDDDD>>>>",
"DDDDvvvvUUUUHHHHKK66!!!!66~~~~~~!!~~66!!!!66ffff8888ggggDDDD>>>>",
"DDDDvvvvUUUUHHHHKK66!!!!66~~~~~~!!~~66!!!!66ffff8888ggggDDDD>>>>",
"llll2222YYYYyyyytt66!!!!66~~!!~~!!~~66!!!!66GGGGppppIIIImmmm1111",
"llll2222YYYYyyyytt66!!!!66~~!!~~!!~~66!!!!66GGGGppppIIIImmmm1111",
"llll2222YYYYyyyytt66!!!!66~~!!~~!!~~66!!!!66GGGGppppIIIImmmm1111",
"llll2222YYYYyyyytt66!!!!66~~!!~~!!~~66!!!!66GGGGppppIIIImmmm1111",
"vvvvmmmmllllAAAA22OOQQQQ66!!!!~~!!!!66QQQQOO3333aaaaqqqqDDDDaaaa",
"vvvvmmmmllllAAAA22OOQQQQ66!!!!~~!!!!66QQQQOO3333aaaaqqqqDDDDaaaa",
"vvvvmmmmllllAAAA22OO^^^^66!!~~~~~~!!66^^^^OO3333aaaaqqqqDDDDaaaa",
"vvvvmmmmllllAAAA22OO^^^^66!!~~~~~~!!66^^^^OO3333aaaaqqqqDDDDaaaa",
"4444LLLL9999CCCCllOOQQ^^oouu55!!!!55oo^^QQOO----IIII,,,,::::eeee",
"4444LLLL9999CCCCllOOQQ^^oouu55!!!!55oo^^QQOO----IIII,,,,::::eeee",
"4444LLLL9999CCCCllOOOOOOoo5555555555ooOOOOOO----IIII,,,,::::eeee",
"4444LLLL9999CCCCllOOOOOOoo5555555555ooOOOOOO----IIII,,,,::::eeee",
"TTTTllll1111eeeeccccddddoouuuu55uuuuooddeeee::::MMMMAAAA====llll",
"TTTTllll1111eeeeccccddddoouuuu55uuuuooddeeee::::MMMMAAAA====llll",
"TTTTllll1111eeeeccccddddoo5555oo5555ooddeeee::::MMMMAAAA====llll",
"TTTTllll1111eeeeccccddddoo5555oo5555ooddeeee::::MMMMAAAA====llll",
"1111FFFF%%%%ffff::::ccccoouuuuoouuuuooggFFFFvvvvNNNNqqqqFFFFPPPP",
"1111FFFF%%%%ffff::::ccccoouuuuoouuuuooggFFFFvvvvNNNNqqqqFFFFPPPP",
"1111FFFF%%%%ffff::::ccccXXooooXXooooXXggFFFFvvvvNNNNqqqqFFFFPPPP",
"1111FFFF%%%%ffff::::ccccXXooooXXooooXXggFFFFvvvvNNNNqqqqFFFFPPPP",
"CCCCBBBBRRRR----IIIIJJJJXX7777XX7777XXjjjjjj0000GGGGnnnnrrrr====",
"CCCCBBBBRRRR----IIIIJJJJXX7777XX7777XXjjjjjj0000GGGGnnnnrrrr====",
"CCCCBBBBRRRR----IIIIJJJJXXXXXXXXXXXXXXjjjjjj0000GGGGnnnnrrrr====",
"CCCCBBBBRRRR----IIIIJJJJXXXXXXXXXXXXXXjjjjjj0000GGGGnnnnrrrr====",
"8888kkkkqqqqwwwwZZZZzzzzggggggggppppEEEE;;;;GGGG4444ssssqqqqmmmm",
"8888kkkkqqqqwwwwZZZZzzzzggggggggppppEEEE;;;;GGGG4444ssssqqqqmmmm",
"8888kkkkqqqqwwwwZZZZzzzzggggggggppppEEEE;;;;GGGG4444ssssqqqqmmmm",
"8888kkkkqqqqwwwwZZZZzzzzggggggggppppEEEE;;;;GGGG4444ssssqqqqmmmm"
};
