/* XPM */
static char *_163d570973045d2fc252929d8346a34rfSnTzIwmnYlQMAC[] = {
/* columns rows colors chars-per-pixel */
"33 33 22 1 ",
"  c None",
". c #2F160F",
"X c #3C1F16",
"o c #292C2F",
"O c #352D3E",
"+ c #6B2119",
"@ c #522C20",
"# c #653729",
"$ c #794333",
"% c #4F3F5C",
"& c #28757E",
"* c #44484E",
"= c #644D77",
"- c #5A6169",
"; c #AB543D",
": c #E88661",
"> c #815A90",
", c #3B8B98",
"< c #4CA8B3",
"1 c #FFBD8B",
"2 c gray81",
"3 c white",
/* pixels */
"                                 ",
"                                 ",
"          XX@@@@@@@@@XX          ",
"          @#$######$$#@          ",
"          @###$$##@#$$@          ",
"          @$#@######@#@          ",
"          X######$$###X          ",
"          X@@@@@@@@@@@X          ",
"          X#@@@@@@@@#@X          ",
"          X@@@##@@@@@@X          ",
"          .@@;;;;;;;@@.          ",
"          X@2==:::==2@X          ",
"          +;3>>111>>3;+          ",
"          +:111:::111:+          ",
"          +;::;+++;::;+          ",
"          +;;;:::::;;;+          ",
"          ,<<&,+++,&<<,          ",
"          &,,&<,;,<&,,&          ",
"          &,,&<,<,<&,,&          ",
"          &,,&,,<,<&,,&          ",
"          +::&,<<,<&::+          ",
"          +11&<<<,<&11+          ",
"          +1:O<<,%=O:1+          ",
"          +++O<%%%%O+++          ",
"             O==%==O             ",
"             %==O==%             ",
"             %=%O%=%             ",
"             O==O==O             ",
"             *-*o*-*             ",
"             ooooooo             ",
"                                 ",
"                                 ",
"                                 "
};
