/* XPM */
static char *_6a11f0656424683dffb0064756b3a3cdaVkASo5ijpayGpD[] = {
/* columns rows colors chars-per-pixel */
"33 33 18 1 ",
"  c None",
". c #2F160F",
"X c #3C1F16",
"o c #292C2F",
"O c #352D3E",
"+ c #6B2119",
"@ c #522C20",
"# c #653729",
"$ c #794333",
"% c #4F3F5C",
"& c #28757E",
"* c #44484E",
"= c #644D77",
"- c #AB543D",
"; c #E88661",
": c #3B8B98",
"> c #4CA8B3",
", c #FFBD8B",
/* pixels */
"                                 ",
"                                 ",
"          XX@@@@@@@@@XX          ",
"          @#$$######$#@          ",
"          @$$#@##$$###@          ",
"          @#@######@#$@          ",
"          X###$$######X          ",
"          X@@@@@@@@@@@X          ",
"          X@@@@##@@@@@X          ",
"          X@#@@@@@@@@@X          ",
"          .@@@@@@@@#@@.          ",
"          X@@@##@@@@@@X          ",
"          .XX@@@@@@@XX.          ",
"          .XXXXX@XXXX@.          ",
"          ..@XXXXXXXX..          ",
"          +--..XXX..--+          ",
"          :>>&:::::&>>:          ",
"          &::&>>>:>&::&          ",
"          &::&>:>:>&::&          ",
"          &::&>:>:>&::&          ",
"          +;;&::>::&;;+          ",
"          +,,&:>>>:&,,+          ",
"          +;,O=%::%O,;+          ",
"          +++O%%%%%O+++          ",
"             O==%==O             ",
"             O%%O%%O             ",
"             O==O==O             ",
"             oOOoOOo             ",
"             o**o**o             ",
"             ooooooo             ",
"                                 ",
"                                 ",
"                                 "
};
